<?xml version="1.0" encoding="UTF-8"?>
<svg xmlns="http://www.w3.org/2000/svg" viewBox="0 0 500 500">
  <defs>
    <style>
      .cls-1 {
        fill: #fff;
      }

      .cls-2 {
        fill: #d3d0b1;
      }

      .cls-3 {
        fill: #e7bd9f;
      }

      .cls-4 {
        fill: #a36e4c;
      }

      .cls-5 {
        fill: #c87d79;
      }

      .cls-6 {
        fill: #a0444e;
      }

      .cls-7 {
        fill: #515562;
      }

      .cls-8 {
        fill: #fefada;
      }

      .cls-9 {
        fill: #a34d5b;
      }

      .cls-10 {
        fill: #863a42;
      }

      .cls-11 {
        fill: #6e6c7b;
      }

      .cls-12 {
        fill: #323044;
      }

      .cls-13 {
        opacity: .2;
      }

      .cls-13, .cls-14 {
        fill: #6a8185;
      }

      .cls-15 {
        fill: #7f6873;
      }

      .cls-16 {
        fill: #b94d59;
      }

      .cls-17 {
        fill: #9b434c;
      }

      .cls-18 {
        fill: #34263b;
      }

      .cls-19 {
        fill: #68818d;
      }

      .cls-20 {
        fill: #ca9661;
      }

      .cls-21 {
        fill: #57495b;
      }

      .cls-22 {
        fill: #493558;
      }

      .cls-23 {
        fill: #3e2d4a;
      }

      .cls-24 {
        fill: #dc9a8e;
      }

      .cls-25 {
        fill: #44324e;
      }

      .cls-26 {
        fill: #934048;
      }

      .cls-27 {
        fill: #c37e59;
      }
    </style>
  </defs>
  <g id="BACKGROUND">
    <rect class="cls-1" width="500" height="500"/>
  </g>
  <g id="OBJECTS">
    <path class="cls-13" d="m120.68,113.29s76.9-87.51,166.2-45.04c89.3,42.47,13.1,81.08,28.97,79.95,15.87-1.12,94.6-63.87,127.32,33.65s11.96,151.11-53.37,158.76c-65.33,7.65,27.49,38.3-10.96,65.27-38.45,26.97-183.26,60.16-217.06,15.38-33.8-44.78.26-100.92.26-100.92,0,0-42.26,72.08-78.6,33.29-36.34-38.79-36.39-138.11.4-153.7s63.74-33.9,45.71-32.6c-18.03,1.3-33.61-26.61-8.88-54.04Z"/>
    <g>
      <path class="cls-23" d="m217.96,228.81s-28.7-2.04-37.8-33.14c-9.1-31.11-40.99-57.59-46.12-69.02-5.13-11.43,35.24-14.17,57.88,6.14,22.65,20.3,40.35,72.69,26.04,96.03Z"/>
      <g>
        <path class="cls-8" d="m214.09,226.08c-1.12-1.17-2.26-5.15-3.99-11.16-4.6-16.04-13.17-45.89-34.61-66.4-14.99-14.34-24.22-20.26-29.32-22.71-5.54-2.65-7.54-1.9-7.56-1.89l-.2-.46c.32-.14,8.33-3.13,37.43,24.7,21.54,20.6,30.13,50.54,34.74,66.62,1.65,5.73,2.83,9.88,3.87,10.96l-.36.35Z"/>
        <path class="cls-8" d="m170.5,143.67c-.38,0-.8-.33-1.11-.61-4.87-4.36-24.45-3.95-24.65-3.95v-.5c.8-.02,19.97-.41,24.98,4.07.52.46.77.51.83.47,1.04-.71-2.92-11.53-4.83-16.73-1.14-3.12-1.79-4.91-1.85-5.39l.5-.06c.05.45.87,2.69,1.82,5.28,3.9,10.63,5.79,16.54,4.64,17.32-.1.07-.21.1-.33.1Z"/>
        <path class="cls-8" d="m188.82,165.4c-.33,0-.72-.14-1.18-.42-6.08-3.68-22.44-1.37-22.61-1.34l-.07-.5c.68-.1,16.71-2.36,22.94,1.41.57.34.98.43,1.21.26,1.14-.83-.26-6.73-1.73-12.98-1.67-7.06-3.56-15.06-3.19-20.47l.5.03c-.37,5.33,1.51,13.29,3.17,20.32,1.88,7.97,2.88,12.52,1.54,13.5-.17.12-.36.18-.58.18Z"/>
        <path class="cls-8" d="m202.07,191.31c-.46,0-.83-.55-1.08-.98-3.64-6.38-25.17-11.3-25.39-11.35l.11-.49c.89.2,21.96,5.02,25.71,11.58.43.75.65.73.67.72.95-.22,1.33-7.05,1.7-13.65.5-8.81,1.11-19.79,3.26-25.8l.47.17c-2.12,5.94-2.74,16.87-3.23,25.66-.51,9.07-.83,13.81-2.09,14.11-.05.01-.09.02-.14.02Z"/>
        <path class="cls-8" d="m209.25,215.7c-2.39,0-7.26-2.99-12.8-6.39-5.13-3.15-10.44-6.4-14-7.38l.13-.48c3.63.99,8.96,4.26,14.13,7.43,5.66,3.47,11.52,7.07,13.16,6.19.28-.15.42-.44.44-.9.21-5.8,9.12-26.35,9.5-27.22l.46.2c-.09.21-9.25,21.33-9.46,27.04-.02.64-.26,1.09-.7,1.32-.23.12-.52.18-.85.18Z"/>
      </g>
    </g>
    <g>
      <path class="cls-20" d="m228.42,271.28s26.48-11.26,24.97-43.63c-1.51-32.38,20.03-67.79,21.17-80.27,1.14-12.48-37.93-1.94-52.74,24.63-14.82,26.56-14.52,81.86,6.6,99.28Z"/>
      <g>
        <path class="cls-8" d="m231.19,267.43l-.45-.21c.63-1.36.4-5.66.1-11.62-.86-16.71-2.47-47.82,11.19-74.3,18.48-35.81,27-35.56,27.36-35.53l-.04.5c-.07,0-8.64-.08-26.88,35.26-13.6,26.36-12,57.38-11.14,74.04.32,6.25.54,10.38-.14,11.85Z"/>
        <path class="cls-8" d="m245.42,175.35s-.1,0-.15-.02c-1.34-.36-1.47-6.56-1.24-17.88.06-2.76.1-5.14,0-5.58l.49-.11c.1.48.07,2.38,0,5.7-.11,5.54-.34,17.06.88,17.39.07.01.29-.11.63-.71,3.28-5.87,21.53-11.73,22.31-11.98l.15.48c-.19.06-18.84,6.04-22.02,11.75-.24.43-.6.97-1.05.97Z"/>
        <path class="cls-8" d="m235.03,201.89c-.09,0-.19-.01-.28-.04-1.59-.49-2.12-5.12-2.93-13.27-.71-7.18-1.52-15.33-3.6-20.24l.46-.19c2.11,4.99,2.92,13.17,3.64,20.39.64,6.39,1.24,12.43,2.58,12.84.28.08.64-.13,1.06-.64,4.67-5.6,20.56-8.67,21.23-8.79l.09.49c-.16.03-16.39,3.16-20.94,8.62-.47.56-.9.84-1.32.84Z"/>
        <path class="cls-8" d="m231.06,230.67c-1.28,0-3.12-4.38-6.51-12.67-3.32-8.15-7.46-18.28-11.4-23.21l.39-.31c3.99,4.99,8.14,15.16,11.47,23.33,2.48,6.07,5.04,12.35,6.03,12.35,0,0,.02,0,.02,0,.02,0,.24-.05.4-.9,1.41-7.43,19.77-18.83,20.55-19.32l.26.43c-.19.12-18.95,11.77-20.32,18.98-.1.53-.3,1.25-.84,1.31-.02,0-.04,0-.06,0Z"/>
        <path class="cls-8" d="m231.74,256.16c-.07,0-.15,0-.22-.02-.49-.08-.86-.42-1.09-1.02-2.05-5.33-17.58-22.32-17.74-22.49l.37-.34c.64.7,15.75,17.23,17.83,22.65.16.43.39.66.7.71,1.82.29,6.2-5,10.43-10.13,3.85-4.67,7.84-9.51,10.94-11.62l.28.41c-3.05,2.07-7.01,6.88-10.84,11.53-4.55,5.53-8.51,10.32-10.68,10.32Z"/>
      </g>
    </g>
    <g>
      <path class="cls-20" d="m152.58,369.23s-23-17.29-50.27.22c-27.27,17.51-68.72,16.58-80.09,21.84-11.37,5.26,17.3,33.81,47.71,33.34s78.14-28.39,82.65-55.4Z"/>
      <g>
        <path class="cls-8" d="m55.57,402.78c-28.8,0-32.01-5.94-32.15-6.22l.45-.22c.04.08,4.29,7.53,43.98,5.63,29.63-1.41,55.68-18.32,69.68-27.41,5.25-3.41,8.72-5.66,10.33-5.81l.05.5c-1.49.14-5.1,2.48-10.11,5.73-14.03,9.11-40.16,26.07-69.93,27.49-4.55.22-8.63.31-12.3.31Z"/>
        <path class="cls-8" d="m41.38,415.46l-.34-.37c.36-.33,2.02-1.25,4.93-2.86,4.85-2.67,14.94-8.24,14.62-9.46-.02-.07-.23-.19-.93-.19-.03,0-.05,0-.08,0-6.76,0-20.86-12.78-21.46-13.32l.34-.37c.15.13,14.55,13.19,21.12,13.19.06,0,.11,0,.17,0,.53,0,1.2.07,1.33.56.36,1.34-4.95,4.56-14.86,10.03-2.42,1.33-4.5,2.48-4.84,2.79Z"/>
        <path class="cls-8" d="m63.56,420.92l-.4-.3c3.26-4.32,9.94-9.12,15.83-13.36,5.21-3.75,10.14-7.29,9.82-8.66-.07-.29-.43-.49-1.08-.6-7.18-1.24-17.79-13.46-18.24-13.98l.38-.33c.11.13,10.94,12.61,17.95,13.82.88.15,1.37.47,1.49.98.37,1.62-3.37,4.4-10.02,9.18-5.86,4.21-12.51,8.99-15.72,13.25Z"/>
        <path class="cls-8" d="m94,420.72l-.47-.18c2.32-5.95,9.05-14.63,14.46-21.61,4.05-5.23,8.24-10.63,7.67-11.42-.01-.02-.16-.18-.98.1-7.15,2.5-26.2-7.69-27.01-8.12l.24-.44c.2.1,19.67,10.51,26.6,8.09.51-.18,1.23-.37,1.55.08.75,1.04-2.12,4.84-7.68,12.02-5.39,6.95-12.1,15.61-14.39,21.49Z"/>
        <path class="cls-8" d="m126.99,402.18l-.48-.15c.29-.91,7.04-22.26,10.69-26.78.29-.36.37-.67.26-.96-.66-1.74-7.44-2.87-13.99-3.96-5.97-1-12.15-2.03-15.54-3.66l.22-.45c3.32,1.6,9.46,2.62,15.4,3.62,7.31,1.22,13.61,2.27,14.37,4.27.18.47.06.96-.34,1.46-3.59,4.44-10.53,26.39-10.6,26.61Z"/>
      </g>
    </g>
    <g>
      <path class="cls-11" d="m296.93,386.85s-24.57-14.96-50.01,5.13c-25.44,20.09-66.77,23.21-77.58,29.55-10.81,6.34,20.52,31.96,50.74,28.52,30.22-3.43,74.99-35.89,76.85-63.2Z"/>
      <g>
        <path class="cls-8" d="m189.29,430.51c-15.66,0-18.1-3.62-18.23-3.84l.43-.26-.21.13.21-.13c.05.07,5.01,7.06,44.32,1.31,29.35-4.3,53.63-23.67,66.67-34.08,4.89-3.91,8.13-6.49,9.72-6.79l.09.49c-1.47.28-4.84,2.97-9.5,6.69-13.08,10.44-37.42,29.87-66.91,34.18-11.56,1.69-20.18,2.3-26.58,2.3Z"/>
        <path class="cls-8" d="m190.78,443.72l-.37-.33c.33-.36,1.89-1.44,4.63-3.33,4.57-3.14,14.07-9.66,13.63-10.84-.03-.07-.25-.17-.95-.1-6.68.76-22.08-10.67-22.73-11.15l.3-.4c.16.12,15.9,11.77,22.38,11.06.54-.06,1.28-.08,1.47.42.49,1.3-4.48,5.02-13.81,11.43-2.28,1.56-4.24,2.91-4.54,3.25Z"/>
        <path class="cls-8" d="m213.38,446.99l-.43-.26c2.82-4.62,9-10.05,14.45-14.84,4.82-4.24,9.38-8.24,8.93-9.58-.09-.28-.48-.44-1.14-.49-7.27-.53-19.02-11.66-19.52-12.14l.34-.36c.12.11,12.12,11.48,19.21,12,.89.07,1.41.34,1.58.83.53,1.57-2.93,4.71-9.08,10.11-5.42,4.77-11.57,10.17-14.35,14.72Z"/>
        <path class="cls-8" d="m243.66,443.82l-.48-.13c1.73-6.14,7.58-15.45,12.28-22.92,3.52-5.6,7.16-11.38,6.52-12.11-.02-.02-.18-.17-.97.2-6.86,3.19-26.82-5.09-27.67-5.45l.19-.46c.2.08,20.6,8.54,27.27,5.46.49-.23,1.19-.49,1.55-.08.85.97-1.63,5.02-6.47,12.71-4.68,7.45-10.52,16.71-12.23,22.79Z"/>
        <path class="cls-8" d="m274.68,422.15l-.49-.1c.2-.93,4.83-22.84,8.02-27.69.25-.38.31-.7.17-.99-.83-1.66-7.68-2.13-14.31-2.58-6.04-.41-12.29-.83-15.82-2.12l.17-.47c3.46,1.27,9.67,1.69,15.68,2.09,7.39.5,13.77.93,14.73,2.85.22.45.16.95-.2,1.48-3.14,4.77-7.9,27.29-7.95,27.52Z"/>
      </g>
    </g>
    <g>
      <path class="cls-23" d="m354.17,386.85s24.57-14.96,50.01,5.13c25.44,20.09,66.77,23.21,77.58,29.55,10.81,6.34-20.52,31.96-50.74,28.52-30.22-3.43-74.99-35.89-76.85-63.2Z"/>
      <g>
        <path class="cls-8" d="m461.81,430.51c-6.4,0-15.01-.61-26.58-2.3-29.49-4.32-53.83-23.75-66.91-34.18-4.66-3.72-8.03-6.41-9.5-6.69l.09-.49c1.59.3,4.82,2.88,9.72,6.79,13.04,10.41,37.32,29.78,66.67,34.08,39.31,5.76,44.27-1.24,44.32-1.31l.43.26c-.13.22-2.58,3.84-18.23,3.84Z"/>
        <path class="cls-8" d="m460.32,443.72c-.3-.33-2.26-1.68-4.54-3.25-9.33-6.41-14.3-10.13-13.81-11.43.19-.5.93-.48,1.47-.42,6.49.71,22.22-10.94,22.38-11.06l.3.4c-.65.49-16.06,11.92-22.73,11.15-.68-.08-.92.03-.95.1-.44,1.18,9.06,7.71,13.63,10.84,2.74,1.88,4.3,2.96,4.63,3.32l-.37.33Z"/>
        <path class="cls-8" d="m437.72,446.99c-2.79-4.55-8.93-9.96-14.36-14.72-6.15-5.41-9.6-8.54-9.08-10.11.17-.5.68-.77,1.58-.83,7.09-.52,19.09-11.88,19.21-12l.35.36c-.5.47-12.25,11.6-19.52,12.14-.66.05-1.04.21-1.14.49-.45,1.33,4.11,5.34,8.93,9.58,5.45,4.79,11.63,10.22,14.45,14.84l-.43.26Z"/>
        <path class="cls-8" d="m407.44,443.82c-1.71-6.07-7.54-15.34-12.23-22.79-4.84-7.69-7.32-11.74-6.47-12.71.36-.41,1.06-.15,1.55.08,6.67,3.09,27.06-5.37,27.27-5.46l.19.46c-.85.35-20.8,8.63-27.67,5.45-.79-.37-.95-.22-.97-.2-.64.73,3,6.52,6.52,12.11,4.7,7.47,10.55,16.77,12.28,22.92l-.48.13Z"/>
        <path class="cls-8" d="m376.42,422.15c-.05-.23-4.81-22.75-7.95-27.52-.35-.54-.42-1.03-.2-1.48.95-1.92,7.33-2.35,14.72-2.85,6.01-.41,12.22-.83,15.68-2.09l.17.47c-3.53,1.29-9.78,1.72-15.82,2.12-6.63.45-13.49.91-14.31,2.58-.14.28-.09.6.17.99,3.19,4.85,7.83,26.76,8.02,27.69l-.49.1Z"/>
      </g>
    </g>
    <g>
      <path class="cls-14" d="m337.58,201.84s28.22,5.59,45.19-22.02c16.97-27.61,54.71-44.77,62.67-54.44,7.96-9.68-30.26-22.94-57.46-9.32-27.19,13.62-58.07,59.5-50.4,85.78Z"/>
      <g>
        <path class="cls-8" d="m342.04,200.22l-.26-.43c1.28-.77,3.52-4.45,6.62-9.55,8.69-14.3,24.86-40.92,51.06-55.12,35.41-19.19,42.33-14.2,42.61-13.98l-.31.39s-1.75-1.27-7.79-.17c-5.57,1.02-16.03,4.3-34.27,14.19-26.08,14.14-42.21,40.68-50.87,54.94-3.25,5.35-5.4,8.89-6.79,9.72Z"/>
        <path class="cls-8" d="m431.84,134.58c-.19-.06-18.97-5.6-24.82-2.68-.49.24-1.17.52-1.52.11-.9-1.05,2.48-6.25,9.03-15.48,1.6-2.25,2.98-4.19,3.15-4.61l.46.19c-.18.45-1.28,2.01-3.2,4.72-3.21,4.51-9.88,13.91-9.06,14.87.05.05.3.08.92-.23,6.01-3.01,24.4,2.42,25.18,2.65l-.14.48Z"/>
        <path class="cls-8" d="m405.82,152.9c-.15-.07-15.33-6.61-22.17-4.66-.86.25-1.44.17-1.77-.24-1.04-1.3,1.13-5.43,5.04-12.62,3.45-6.34,7.36-13.53,8.41-18.76l.49.1c-1.06,5.31-4.99,12.53-8.46,18.91-3.07,5.64-5.97,10.97-5.09,12.07.18.23.6.25,1.24.07,7-2,21.87,4.4,22.5,4.68l-.2.46Z"/>
        <path class="cls-8" d="m362.95,169.86c-.1,0-.2-.02-.29-.07-1.13-.62-.2-5.28,1.7-14.16,1.84-8.6,4.12-19.31,3.64-25.6l.5-.04c.49,6.36-1.8,17.11-3.65,25.74-1.38,6.47-2.81,13.15-1.95,13.62.02.01.22.1.84-.52,5.35-5.35,26.94-4.45,27.85-4.41l-.02.5c-.23,0-22.28-.93-27.48,4.26-.31.31-.73.68-1.14.68Z"/>
        <path class="cls-8" d="m350.7,191.61c-.94,0-1.63-.16-2.03-.54-.36-.34-.47-.83-.33-1.46,1.31-5.56-1.97-28.34-2-28.57l.49-.07c.14.94,3.33,23.11,2,28.76-.1.44-.04.77.18.98,1.35,1.27,7.94-.65,14.32-2.51,5.81-1.7,11.83-3.45,15.58-3.45v.5c-3.69,0-9.66,1.74-15.45,3.43-5.29,1.54-10.05,2.93-12.77,2.93Z"/>
      </g>
    </g>
    <g>
      <path class="cls-14" d="m121.89,315.94s-28.77.44-40.51-29.77c-11.74-30.21-45.8-53.85-51.89-64.79-6.1-10.95,33.89-17.15,58.2,1.13,24.31,18.28,46.46,68.95,34.21,93.43Z"/>
      <g>
        <path class="cls-8" d="m117.8,313.54c-1.22-1.07-2.7-4.93-4.93-10.78-5.97-15.58-17.07-44.59-40.2-63.17-16.17-12.99-25.88-18.1-31.17-20.1-5.75-2.17-7.68-1.24-7.69-1.23l-.23-.44c.31-.17,8.02-3.84,39.41,21.39,23.23,18.67,34.37,47.76,40.35,63.38,2.13,5.57,3.67,9.59,4.8,10.58l-.33.38Z"/>
        <path class="cls-8" d="m67.22,235.19c-.37,0-.79-.27-1.1-.51-5.23-3.92-24.7-1.83-24.9-1.81l-.05-.5c.81-.09,19.87-2.13,25.25,1.91.56.42.81.44.86.4.98-.79-3.9-11.23-6.25-16.25-1.41-3.01-2.21-4.74-2.31-5.21l.49-.1c.09.44,1.1,2.6,2.27,5.1,4.79,10.25,7.19,15.98,6.11,16.85-.11.09-.24.13-.38.13Z"/>
        <path class="cls-8" d="m63.54,255.56l-.11-.49c.67-.16,16.44-3.79,22.98-.57.59.29,1.01.34,1.23.15,1.06-.92-.84-6.68-2.84-12.78-2.27-6.89-4.84-14.7-4.94-20.12h.5c.09,5.33,2.65,13.1,4.91,19.96,2.56,7.78,3.95,12.23,2.7,13.32-.39.34-.98.32-1.78-.08-6.37-3.15-22.48.57-22.64.61Z"/>
        <path class="cls-8" d="m102.78,279.94c-.44,0-.84-.49-1.11-.88-4.18-6.04-26.05-9.09-26.27-9.12l.07-.5c.91.12,22.31,3.11,26.61,9.33.49.71.71.67.73.66.93-.3.72-7.14.52-13.75-.27-8.82-.6-19.81,1.03-25.98l.48.13c-1.6,6.1-1.27,17.05-1.01,25.84.27,9.08.36,13.83-.87,14.24-.06.02-.13.03-.19.03Z"/>
        <path class="cls-8" d="m111.81,303.63c-2.49,0-7.43-2.48-13.02-5.27-5.38-2.7-10.95-5.48-14.58-6.14l.09-.49c3.7.67,9.3,3.48,14.71,6.19,5.94,2.97,12.09,6.05,13.64,5.03.26-.17.38-.48.36-.93-.29-5.79,6.82-27.04,7.12-27.94l.47.16c-.07.22-7.38,22.05-7.09,27.75.03.64-.16,1.1-.58,1.38-.28.18-.66.27-1.12.27Z"/>
      </g>
    </g>
    <g>
      <path class="cls-23" d="m361.58,360.84s28.22,5.59,45.19-22.02c16.97-27.61,54.71-44.77,62.67-54.44,7.96-9.68-30.26-22.94-57.46-9.32-27.19,13.62-58.07,59.5-50.4,85.78Z"/>
      <g>
        <path class="cls-8" d="m366.04,359.22l-.26-.43c1.28-.77,3.52-4.45,6.62-9.55,8.69-14.3,24.86-40.92,51.06-55.12,35.41-19.19,42.33-14.2,42.61-13.98l-.31.39s-1.75-1.27-7.79-.17c-5.57,1.02-16.03,4.3-34.27,14.19-26.08,14.14-42.21,40.68-50.87,54.94-3.25,5.35-5.4,8.89-6.79,9.72Z"/>
        <path class="cls-8" d="m455.84,293.58c-.19-.05-18.97-5.6-24.82-2.68-.49.24-1.17.52-1.52.11-.9-1.05,2.48-6.26,9.04-15.49,1.6-2.25,2.98-4.19,3.14-4.61l.46.19c-.18.45-1.28,2.01-3.2,4.71-3.21,4.52-9.88,13.91-9.06,14.87.05.05.3.08.92-.23,6.02-3.01,24.4,2.42,25.18,2.65l-.14.48Z"/>
        <path class="cls-8" d="m429.82,311.9c-.15-.07-15.33-6.6-22.17-4.66-.86.25-1.44.17-1.77-.24-1.04-1.3,1.13-5.43,5.04-12.62,3.45-6.34,7.36-13.53,8.41-18.76l.49.1c-1.06,5.31-4.99,12.53-8.46,18.91-3.07,5.64-5.97,10.97-5.09,12.07.18.23.6.25,1.24.07,7-2,21.87,4.4,22.5,4.68l-.2.46Z"/>
        <path class="cls-8" d="m386.95,328.86c-.1,0-.2-.02-.29-.07-1.13-.62-.2-5.28,1.7-14.16,1.84-8.6,4.12-19.31,3.64-25.6l.5-.04c.49,6.36-1.8,17.11-3.65,25.74-1.38,6.47-2.81,13.15-1.95,13.62.02.01.23.09.84-.52,5.35-5.35,26.94-4.45,27.85-4.41l-.02.5c-.23-.01-22.28-.93-27.48,4.26-.31.31-.73.68-1.14.68Z"/>
        <path class="cls-8" d="m374.7,350.61c-.94,0-1.63-.16-2.03-.54-.36-.34-.47-.84-.33-1.46,1.31-5.56-1.97-28.34-2-28.57l.49-.07c.14.94,3.33,23.11,2,28.76-.1.44-.04.77.18.98,1.35,1.28,7.94-.65,14.32-2.51,5.81-1.7,11.83-3.45,15.58-3.45v.5c-3.69,0-9.66,1.74-15.44,3.43-5.29,1.54-10.05,2.93-12.77,2.93Z"/>
      </g>
    </g>
    <g>
      <path class="cls-14" d="m164.85,251.83s-4.01-47.46,25.67-52.35c25.19-4.15,45.27,7.09,55.15,32.52s-74.26,27.52-80.81,19.84Z"/>
      <path class="cls-3" d="m103.16,173.56s9.16,17.96,17.58,16.63c8.42-1.33,11.92-12.93,25.53-8.15,13.61,4.79,26.05,33.37,39.16,37.42s-8.53,34.14-8.53,34.14c0,0-105.31,6.63-109.59-1.1s28.45-46.69,31.64-49.1c7.37-5.57-3.19-15.16-3.19-15.16l7.4-14.69Z"/>
      <path class="cls-3" d="m103.14,161.25s11.32,22.84-.85,27.43c-8.37,3.15-17.64-9.82-17.72-17.35-.08-7.52,11.7-13.65,18.56-10.08Z"/>
      <ellipse class="cls-18" cx="93.42" cy="176.89" rx=".79" ry="1.02" transform="translate(-56.44 44.38) rotate(-20.68)"/>
      <ellipse class="cls-18" cx="101.17" cy="173.97" rx=".79" ry="1.02" transform="translate(-54.91 46.92) rotate(-20.68)"/>
      <path class="cls-3" d="m106.42,173.07s-.14-4.57,2.32-3.48,2.29,6.71.56,7.33-3.07-1.9-2.87-3.85Z"/>
      <path class="cls-6" d="m99.14,170.2s1.54-1.22,3.38.44c1.07.97-5.14.82-3.38-.44Z"/>
      <path class="cls-6" d="m92.53,172.52s-1.95-.22-2.63,2.17c-.39,1.39,4.79-2.03,2.63-2.17Z"/>
      <path class="cls-3" d="m88.94,179.85s-2.9-3.54-4.03-1.1,2.68,6.56,4.4,5.89c1.71-.67,1.07-3.44-.37-4.79Z"/>
      <path class="cls-6" d="m85.15,165.32s4.32,9.01,1.98,13.66c0,0-13.46-3.63-1.98-13.66Z"/>
      <path class="cls-5" d="m99.34,180.89c-.66,0-2.03-.52-2.72-1.42l.4-.3c.6.79,1.78,1.19,2.24,1.23-.14-.67-1.12-3.06-2.08-5.2l.46-.21c1.55,3.44,2.26,5.36,2.11,5.71l-.17.16c-.06.02-.15.03-.24.03Z"/>
      <path class="cls-5" d="m99.31,183.83c-1.76,0-3.6-1.35-3.69-1.42l.3-.4s2.64,1.94,4.38,1.12c.96-.46,1.5-1.69,1.6-3.68l.5.02c-.11,2.19-.74,3.57-1.89,4.11-.38.18-.78.25-1.19.25Z"/>
      <path class="cls-5" d="m88.84,183.11c-1.15-2.81-2.45-2.69-2.46-2.69l-.07-.49c.06-.01,1.69-.22,3,3l-.46.19Z"/>
      <path class="cls-5" d="m108.31,175.75c-1.14-3.28.21-4.2.27-4.23l.27.42s-1.07.78-.07,3.65l-.47.16Z"/>
      <path class="cls-3" d="m86.34,198.35s-.24-4.13-3.58-7.02-6.94-7.21-4.88-6.23,4.66,2.61,4.66,2.61c0,0-3.73-3.61-3.15-4.11s5.65,1.92,5.65,1.92c0,0-4.49-2.56-2.69-3.42s13.9,9.61,11.9,13.35c-2.46,4.58-2.34,4.81-7.91,2.9Z"/>
      <path class="cls-14" d="m169.92,249.72s3.89-26.83,11.38-30.26,80.71,19.62,90.06,20.55,15.48,9.4,14.79,11.03-12.13,2.21-16.9,3.15-99.96,13.31-99.34-4.47Z"/>
      <path class="cls-14" d="m176.84,220.5s-3.7-11.3,2.54-16.67c22.04-18.97,82.03,21.86,92.4,31.38,6.93,6.36,21.63,13.12,20.66,14.59s-15.04-6.19-19.9-6.14-99.58-5.79-95.7-23.15Z"/>
      <path class="cls-5" d="m84.16,192.83s9.1-.69,10.45-.06,2.88,58.16-3.15,61.43-21.33,3.91-26.6.27c-5.27-3.65,15.31-63.86,19.29-61.63Z"/>
      <path class="cls-5" d="m100.91,201.18s17.69,12.88,19.83-10.99c0,0,13.09-11.14,23.05-11.21,15.98-.12,20.48,23.35,35.59,24.85,6.16.61-2.05,52.51-2.05,52.51,0,0-93.23,2.03-98,.67s-1.83-35.04,1.37-39.65,17.45-17.08,20.22-16.18Z"/>
      <path class="cls-5" d="m95.77,188.24s5.43,6.93,9.52,6.31,4.48-10.98,4.48-10.98l-1.83-2.36s0,12.01-12.17,7.03Z"/>
      <path class="cls-6" d="m82.03,162.49s1.72-4.61,8.3-7.37,15.56-7.01,16.07-5.01-1.57,6.54-1.57,6.54c0,0,5-3.66,4.57-.92s-2,8.97-11.8,11.88-19.98,2.73-15.58-5.12Z"/>
      <path class="cls-6" d="m100.34,160.08s3.52,11.97,6.48,11.2c0,0,1.45-6.07-.42-9.42s-6.06-1.78-6.06-1.78Z"/>
      <path class="cls-9" d="m90.82,250.01l-.26-.42c5.29-3.29,4.86-43.84,4.85-44.25h.5c.02,1.68.44,41.24-5.09,44.68Z"/>
      <path class="cls-9" d="m111.96,206.87c-6.51,0-13.05-3.21-13.12-3.24l.22-.45c.07.03,6.99,3.42,13.59,3.18,6.2-.23,9.15-10.88,9.76-14.97l.49.07c-.25,1.69-1.1,5.43-2.67,8.73-2.04,4.31-4.59,6.55-7.57,6.66-.24,0-.47.01-.71.01Z"/>
      <path class="cls-8" d="m114.75,216.4s.47-13.1,14.85-20.49c8.38-4.31,10.07,4.54,10.57,5.84s-21.64,17.91-24.83,17.57-32.32,2.17-32.94,1.84-2.68-5.2.45-7.54,26.03-5.11,31.91,2.78Z"/>
      <path class="cls-14" d="m90.4,252.77s-12.55-33.89-9.38-35.13c4.31-1.69,29.19-1.58,33.73-1.24,0,0,18.2-20.34,23.9-19.06s17.92,38.86,15.58,39.02-16.98,11.87-28.74,17c0,0-31.87.85-35.09-.58Z"/>
      <path class="cls-3" d="m145.25,238.45s-6.6-3.66-11.01-3.87c-4.41-.21-10,.42-7.83,1.13s5.17,1.33,5.17,1.33c0,0-5.2.04-5.12.8s5.42,2.51,5.42,2.51c0,0-5.02-1.24-4.3.62s10.02,2.36,13.63,6.1c3.61,3.74,9.4-6.17,4.05-8.63Z"/>
      <path class="cls-9" d="m141.71,201.71c-6.9-7.78-1.82-18.38-1.77-18.49l.45.22c-.05.1-4.98,10.41,1.7,17.93l-.37.33Z"/>
      <path class="cls-5" d="m136.67,230.61s-3.99,12.87,0,17.31,37.51-6.81,41.07-16.71-1.82-18.68-7.82-18.63-15.51,12.86-33.25,18.03Z"/>
      <path class="cls-9" d="m147.23,250.71c-1.91,0-3.84-.21-5.76-.68l.12-.49c11.02,2.66,22.31-3.16,29.2-9.49,4.84-4.45,7.67-9.22,7.21-12.15-1.14-7.36-10.97-26.76-11.07-26.96l.45-.23c.41.8,9.97,19.67,11.12,27.11.48,3.1-2.41,8.04-7.37,12.6-5.79,5.32-14.65,10.28-23.9,10.28Z"/>
      <path class="cls-9" d="m151.75,223.6l-.36-.35c.93-.96,9.75-8,13.2-9.31l.18.47c-3.4,1.29-12.1,8.24-13.02,9.19Z"/>
      <path class="cls-8" d="m86.39,215.44l-.09-.49c.76-.14,18.59-3.38,25.78.02l-.21.45c-7.04-3.33-25.29-.02-25.47.02Z"/>
      <path class="cls-8" d="m121.41,217.58s17.86-10.47,18.77-12.22c.32-.61,3.62,9.84,3.62,9.84,0,0-16.86,9.38-17.87,9.52s-4.01-5.17-4.51-7.14Z"/>
      <path class="cls-9" d="m143.57,248.03c-3.36-6.68-2.33-18.61-2.29-19.12l.5.04c-.01.12-1.06,12.3,2.24,18.85l-.45.22Z"/>
      <path class="cls-9" d="m95.12,200.71c-3.57-1.37-13.84-.98-13.95-.98l-.02-.5c.43-.02,10.48-.4,14.15,1.01l-.18.47Z"/>
      <path class="cls-5" d="m82.76,187.82l-.44-.24c.03-.05.7-1.26,2.6-2.29l.24.44c-1.76.95-2.39,2.08-2.4,2.09Z"/>
      <path class="cls-7" d="m231.08,209.74c-10.18-4.86-27.69-7.4-40.08-2.53l-.18-.47c12.52-4.92,30.2-2.37,40.48,2.54l-.22.45Z"/>
      <path class="cls-25" d="m269.05,232.9s-2.59,12.32.39,13.28,17.59-3.14,21.6-1.1,6.86,5.56,6.44.55-5.63-9.63-10.78-11.07-17.65-1.66-17.65-1.66Z"/>
      <path class="cls-25" d="m269.08,245.31s-1.08,7.33,1.9,8.29,13.86-2.04,17.86,0,11.17,5.73,10.74.72-5.63-9.63-10.78-11.07-19.73,2.06-19.73,2.06Z"/>
      <path class="cls-14" d="m185.91,207.97s-12.25,34.37-11.58,48.37c.26,5.42,21.85,3.57,28.97,3.21s-14.75-45.79-17.39-51.58Z"/>
      <path class="cls-7" d="m179.51,233.09c-1.5-1.24-.23-6.81.89-11.72.45-1.99.88-3.88,1.01-5.04.43-3.9,4.15-8.34,4.31-8.52l.38.32s-3.78,4.51-4.19,8.26c-.13,1.19-.54,3-1.02,5.1-.98,4.3-2.32,10.18-1.06,11.22l-.32.39Z"/>
      <path class="cls-10" d="m84.78,167.49l-.25-.43c.25-.14,6.25-3.53,8.96-3.53,5.78,0,9.09-2.03,9.84-6.05l.49.09c-.8,4.28-4.28,6.45-10.33,6.45-2.57,0-8.65,3.43-8.71,3.47Z"/>
      <path class="cls-10" d="m83.21,165.73l-.43-.25c.13-.23,3.35-5.6,7.73-6.78,1.75-.47,3.15-.33,4.27-.22,1.73.17,2.78.28,3.91-1.75l.44.24c-1.29,2.31-2.66,2.17-4.4,2-1.14-.11-2.43-.24-4.09.2-4.18,1.13-7.4,6.5-7.43,6.55Z"/>
      <path class="cls-10" d="m84.92,176.93c-.07-.22-1.69-5.45-.82-7.27l.45.21c-.78,1.64.83,6.85.85,6.9l-.48.15Z"/>
      <path class="cls-10" d="m105.91,169.15c-.56-2.78-1.82-3.84-1.83-3.86l.32-.39c.06.05,1.41,1.17,2,4.15l-.49.1Z"/>
      <path class="cls-8" d="m277.96,245.01c-.19-.66-1.6-3.15-2.32-4.38l.43-.25c.09.15,2.12,3.61,2.37,4.5l-.48.14Z"/>
      <path class="cls-8" d="m282.4,245.23l-.49-.07c.23-1.62-1.67-4.74-1.69-4.77l.43-.26c.08.13,2.02,3.3,1.76,5.1Z"/>
      <path class="cls-8" d="m279.2,254.02c-.19-.66-1.6-3.15-2.32-4.38l.43-.25c.09.15,2.12,3.61,2.37,4.5l-.48.14Z"/>
      <path class="cls-8" d="m283.63,254.23l-.49-.07c.23-1.62-1.67-4.74-1.69-4.77l.43-.26c.08.13,2.02,3.3,1.76,5.1Z"/>
      <path class="cls-7" d="m269.07,245.56c-.45-.01-45.42-1.05-65.81-4.22-17.56-2.73-21.61-6.47-21.78-6.62l.35-.36s4.16,3.79,21.51,6.49c20.36,3.17,65.29,4.2,65.74,4.21v.5Z"/>
      <path class="cls-2" d="m114.16,216.49c-9.42-3.52-29.27-1.18-29.47-1.15l-.06-.5c.2-.02,20.17-2.38,29.7,1.18l-.17.47Z"/>
      <path class="cls-2" d="m116.9,212.67l-.47-.17c3.25-8.74,14.75-15.07,14.87-15.13l.24.44c-.11.06-11.46,6.31-14.64,14.87Z"/>
      <path class="cls-7" d="m125.48,253.6c-.29,0-.69-.3-6.89-17.67-3.09-8.66-6.14-17.43-6.17-17.51l.47-.16c4.72,13.59,12,34.09,12.74,34.9l-.14.13v.32s0,0,0,0Z"/>
      <path class="cls-7" d="m130.68,251.92c-1.48-4.2-13.13-36.17-13.25-36.5l.47-.17c.12.32,11.77,32.3,13.25,36.5l-.47.17Z"/>
    </g>
    <g>
      <path class="cls-19" d="m58.94,317.5s171.6,1.68,178.81,0c7.21-1.68,24.28-2.65,26.34.77s9.21,59.02-1.09,62.38c-10.31,3.35-207.15,1.12-211.27,1.12s-1.55-57,.52-59.79,0-3.35,6.7-4.47Z"/>
      <path class="cls-22" d="m103.66,333.03s-.41,26.8,2.46,30.75,123.46,3.51,127.56,2.64,1.64-34.27,1.64-34.27c0,0-132.07-3.51-131.66.88Z"/>
      <path class="cls-22" d="m66.16,317.37l-1,65.47s8.5.52,10,.52,1-67.02,1-67.02l-10,1.03Z"/>
      <path class="cls-22" d="m84.66,317.34l-1,63.5s8.5.5,10,.5,1-65,1-65l-10,1Z"/>
    </g>
    <g>
      <path class="cls-22" d="m58.94,255.45s171.41.07,178.81,0c12.41-.11,25.35,1.57,27.41,4.89s8.14,53.11-2.16,56.36-207.15,1.08-211.27,1.08-1.55-55.28.52-57.99,0-3.25,6.7-4.34Z"/>
      <path class="cls-8" d="m50.66,266.84s182,.5,184,4,4.5,35.5-4.5,38.5-177,4-181.5,1-4.5-42.5,2-43.5Z"/>
      <path class="cls-2" d="m172.8,278.11c-10.38,0-20.38-.36-28.73-.66-7.11-.25-12.72-.46-16.4-.37-20.27.49-76.44,1-77,1v-.5c.56,0,56.73-.51,76.99-1,3.7-.09,9.32.11,16.43.37,10.3.37,23.11.83,36.05.59,27.27-.5,54.02-.96,54.02-.96v.5s-26.74.46-54.01.96c-2.46.04-4.92.06-7.35.06Z"/>
      <path class="cls-2" d="m116.34,288.43c-24.94,0-67.61-.83-68.18-.84v-.5c.77.02,76.59,1.49,84.98.5,4.07-.48,25.66-1.28,48.51-2.14,24.28-.91,49.38-1.84,51.97-2.36l.1.49c-2.63.53-27.75,1.46-52.05,2.37-22.84.85-44.41,1.66-48.47,2.13-2.11.25-8.49.34-16.85.34Z"/>
      <path class="cls-2" d="m97.13,296.03c-23.68,0-49.09-.43-49.48-.44v-.5c.58.01,57.76.99,80.49,0,19.66-.85,104.95-4.03,106.59-3.49l-.16.47c-1.79-.46-80.71,2.4-106.41,3.51-7.62.33-19.11.44-31.04.44Z"/>
      <path class="cls-2" d="m96.9,304.41c-23.05,0-45.84-.32-46.24-.32v-.5c.71.01,70.71.98,89.48-.5,7.13-.56,21.15-.78,35.99-1,24.92-.38,53.16-.81,58.43-2.98l.19.46c-5.36,2.21-33.65,2.64-58.61,3.02-14.84.23-28.85.44-35.96,1-8.11.64-25.77.82-43.28.82Z"/>
      <path class="cls-14" d="m194.16,301.84s-18-23.5-16-24.5,34-4,33.5-1-15.5,25.5-17.5,25.5Z"/>
      <path class="cls-20" d="m167.16,318.84s-18-23.5-16-24.5,34-4,33.5-1-15.5,25.5-17.5,25.5Z"/>
      <path class="cls-16" d="m99.66,266.34s6,61,6,64.5,7-16,7-16c0,0,6.02,16.09,7.87,15.33s5.13-61.33,2.13-63.33-23-.5-23-.5Z"/>
    </g>
    <g>
      <path class="cls-20" d="m442.49,180.31s23.27,173.34,25.81,180.73c2.54,7.39,3.69,36.21-13.68,36.75-4.05.13-38.02,14.29-42.83-11.96-2.06-11.22-30.44-201.69-30.94-206.02s51.2-10.39,54.22-8.54c3.03,1.85,5.51,2.13,7.43,9.05Z"/>
      <path class="cls-27" d="m405.45,349.2s54.03-10.67,57.99-8.98,5.94,25.95,7.02,35.6-5.1,22.08-21.36,24.37-36.3,5.06-38.84-17.6c-1.9-16.94-4.81-33.39-4.81-33.39Z"/>
      <path class="cls-8" d="m390.51,178.64s28.69,205.52,33.2,209.06,33.78-1.54,34.3-5.78c1.06-8.63-27.32-206.12-30.5-209.6s-39.35-.46-36.99,6.32Z"/>
      <path class="cls-2" d="m431.89,389.88c-4.92-6.3-36.12-206.39-37.45-214.9l.49-.08c.32,2.08,32.51,208.47,37.35,214.67l-.39.31Z"/>
      <path class="cls-2" d="m444.28,384.23c-.25-1.9-24.81-190.63-28.99-212.33l.49-.09c4.18,21.72,28.75,210.46,28.99,212.36l-.5.07Z"/>
      <path class="cls-2" d="m452.48,387.17l-.5-.02c.51-11.15-24.48-212.76-24.73-214.8l.5-.06c.25,2.04,25.24,203.69,24.74,214.88Z"/>
      <path class="cls-2" d="m440.88,386.73c-.37-1.96-36.53-196.42-35.67-215.35l.5.02c-.86,18.87,35.29,213.28,35.66,215.24l-.49.09Z"/>
    </g>
    <g>
      <path class="cls-11" d="m387.43,186.81s1.06,174.89,2.64,182.54c1.58,7.65-.94,36.38-18.24,34.71-4.04-.39-39.53,9.34-40.97-17.3-.62-11.39-4.57-203.92-4.52-208.28.06-4.36,52.1-3.8,54.87-1.58,2.77,2.22,5.19,2.82,6.22,9.92Z"/>
      <path class="cls-21" d="m329.24,349.62s54.95-3.72,58.67-1.54,1.22,25.31,1.06,35.02c-.16,9.71-6.48,22.43-22.91,22.64s-36.42.3-34.5-22.42c1.45-17.2-2.31-33.7-2.31-33.7Z"/>
      <path class="cls-8" d="m336.09,178.55s2.35,207.5,6.37,211.58c4.02,4.09,33.7,2.76,34.75-1.38,2.15-8.42-.92-207.92-3.63-211.78s-38.98-5.45-37.5,1.57Z"/>
      <path class="cls-2" d="m350.3,393.33c-4.08-6.87-9.61-209.3-9.84-217.92h.5c.06,2.09,5.76,210.9,9.77,217.66l-.43.26Z"/>
      <path class="cls-2" d="m363.31,389.3c0-1.92-.39-192.23-1.78-214.3l.5-.03c1.39,22.08,1.78,212.41,1.78,214.33h-.5Z"/>
      <path class="cls-2" d="m371.07,393.26l-.49-.09c1.92-10.99,2.75-214.15,2.75-216.2h.5c0,2.05-.84,205.25-2.76,216.29Z"/>
      <path class="cls-2" d="m359.61,391.35c-.11-1.99-11.28-199.47-8.02-218.14l.49.09c-3.25,18.61,7.92,216.03,8.03,218.03l-.5.03Z"/>
    </g>
    <g>
      <path class="cls-22" d="m327.87,182.4s1.52,181.53,3.44,189.13c1.91,7.6,3.28,25.64-.31,27.87s-62.35,10.76-66.1-.08c-3.75-10.84-5.17-219.08-5.25-223.45s60.35-2.61,63.35-.48c3,2.13,3.55-.06,4.86,7.01Z"/>
      <path class="cls-16" d="m259.52,189.34h65.69s.71,8.8,0,8.8-62.51.73-64.63.24-1.06-9.04-1.06-9.04Z"/>
      <path class="cls-16" d="m259.52,205.03h65.69s.71,8.8,0,8.8-62.51.73-64.63.24-1.06-9.04-1.06-9.04Z"/>
      <path class="cls-16" d="m278.61,231.08h33.22s1.03,121.26.67,121.26-32.28,3.77-33.35-2.64c-1.07-6.41-.54-118.62-.54-118.62Z"/>
    </g>
    <g>
      <path class="cls-3" d="m241.94,116.11s4.95,9.78,17.33,18.03,26.89-9.01,26.89-9.01c0,0-38.94-12.79-44.22-9.01Z"/>
      <path class="cls-3" d="m327.11,67.48s-3.1,11.64-1.86,15.6,15.81,5.03,20.59,10.86c4.77,5.83-8.72,58.68-8.81,62.35s-51.59-2.99-57.95-6.07,10.94-56.47,17.08-61.24,12.16-.32,15.14-5.9,1.7-11.68,1.7-11.68l14.11-3.92Z"/>
      <g>
        <path class="cls-3" d="m334.91,55.34s-5.64,24.86-17.97,20.74c-8.48-2.84-7.47-18.75-2.79-24.64,4.69-5.88,17.69-3.19,20.76,3.9Z"/>
        <ellipse class="cls-18" cx="317.5" cy="61.33" rx="1.02" ry=".79" transform="translate(158.7 343.02) rotate(-71.52)"/>
        <ellipse class="cls-18" cx="325.34" cy="63.96" rx="1.02" ry=".79" transform="translate(161.57 352.26) rotate(-71.52)"/>
        <path class="cls-3" d="m329.99,66.58s2.78-3.63,3.99-1.23-2.46,6.65-4.2,6.04-1.18-3.4.21-4.8Z"/>
        <path class="cls-18" d="m326.15,59.76s1.97.02,2.34,2.48c.22,1.43-4.5-2.61-2.34-2.48Z"/>
        <path class="cls-18" d="m319.56,57.38s-1.38-1.4-3.41.02c-1.18.83,5,1.45,3.41-.02Z"/>
        <path class="cls-3" d="m312.15,60.79s-.01-4.57-2.43-3.4-2.06,6.78-.31,7.35,3-2,2.74-3.95Z"/>
        <path class="cls-12" d="m318.38,47.13s-2.35,9.71-7.09,11.84c0,0-8.14-11.31,7.09-11.84Z"/>
        <path class="cls-12" d="m332.89,51.98s-3.97,9.17-1.45,13.72c0,0,13.31-4.15,1.45-13.72Z"/>
        <path class="cls-12" d="m335.92,53.97s3.3-6.83-1.49-10.77c-4.79-3.93-15.32,1.67-15.91-2.65-.37-2.73-3.51,4.3,1.02,5.88,0,0-4.53-3.96-4.72-3.09-1.88,8.43,16.05,17.15,21.11,10.62Z"/>
        <path class="cls-22" d="m323.39,51.26c-.2-.07-.4-.14-.6-.21-3.58-1.3-4.82-2.73-5.23-3.69-.39-.91-.12-1.54-.1-1.56l.31.14-.16-.07.16.07s-.22.54.11,1.31c.39.9,1.58,2.24,5.03,3.49,2.79,1.01,4.96,1.24,6.54,1.4,2.05.21,3.28.34,3.53,2.06l-.34.05c-.21-1.46-1.15-1.56-3.22-1.77-1.49-.15-3.48-.36-6.02-1.21Z"/>
        <path class="cls-22" d="m334.52,52.58s-.03-2.84-4.57-4.96c-1.9-.89-3.41-.57-4.61-.31-.9.19-1.68.35-2.33-.07-.63-.42-1.07-1.36-1.4-3.05l.33-.07c.31,1.57.71,2.47,1.26,2.83.53.35,1.21.21,2.07.02,1.26-.27,2.82-.6,4.83.34,4.76,2.22,4.77,5.15,4.77,5.27h-.34Z"/>
        <path class="cls-5" d="m319.76,68.3c-.49-.17-1.46-1.64-1.42-2.95l.5.02c-.03.99.63,2.05.96,2.37.31-.61,1.06-3.08,1.67-5.34l.48.13c-.98,3.65-1.64,5.58-1.96,5.76l-.23.02Z"/>
        <path class="cls-5" d="m319.35,71.05c-.2,0-.39-.02-.58-.07-2.15-.53-3.02-3.85-3.05-3.99l.48-.12s.83,3.17,2.69,3.63c1.04.26,2.24-.36,3.57-1.84l.37.33c-1.24,1.37-2.4,2.07-3.47,2.07Z"/>
        <path class="cls-5" d="m310.49,63.4l-.48-.15c.89-2.91-.2-3.64-.21-3.65l.26-.43c.06.03,1.44.89.43,4.22Z"/>
        <path class="cls-5" d="m330.23,70.01l-.47-.17c1.19-3.27,2.81-3.12,2.88-3.11l-.06.5.03-.25-.02.25s-1.32-.08-2.36,2.79Z"/>
      </g>
      <path class="cls-25" d="m348.13,235.8s-5.14,14.48-2.56,20.07,8.92,8.41,12.42,7.83-4.42-8.64-5.17-13.92,2.33-13.99,2.33-13.99h-7.03Z"/>
      <path class="cls-25" d="m334.82,236.93s-5.14,14.48-2.56,20.07,8.92,8.41,12.42,7.83-4.42-8.64-5.17-13.92,2.33-13.99,2.33-13.99h-7.03Z"/>
      <path class="cls-20" d="m301.95,170.54s7.04-19.23,26.31-14.68c19.28,4.54,25.41,82.34,15.51,89.15-3.88,2.67-17.37.64-17.62-2.87-2.67-37.79-25.54-55.68-24.21-71.6Z"/>
      <path class="cls-20" d="m319.67,156.74s31.44-4.49,45.49,9.46,4.19,74.11-7.83,79.41c-4.53,2-12.48-1.14-12.48-1.14-2.97-4.03-34.63-74.85-25.18-87.73Z"/>
      <path class="cls-4" d="m345.08,244.56l-.47-.17c2.25-6.18,8.39-47.14,3.52-70.04-2.55-12-6.42-16.2-9.21-17.61-2.59-1.31-4.62-.41-4.64-.41l-.21-.45c.09-.04,2.25-1,5.06.4,2.9,1.45,6.89,5.75,9.49,17.96,4.89,22.98-1.28,64.11-3.54,70.31Z"/>
      <path class="cls-20" d="m315.96,174.52s-32.71,1.46-38.17-2.93c-9.37-7.56,1.29-21.35,1.29-21.35l49.19,5.63s-.58,18.48-12.31,18.66Z"/>
      <path class="cls-16" d="m307.99,85.28s.11,8.86,10.32,9.79c8.92.81,8.11-10.28,14.3-7.8s10.6.81,14.24,10.34-1.72,61.05-4.67,60.76-33.47-3.96-44.32,3.16c-9.04,5.93-25.96,10.99-24.54,3.42s5.03-63.97,10.21-72.06c3.3-5.16,21.87-7.36,24.46-7.6Z"/>
      <path class="cls-20" d="m232.41,108.05s57.18-7.49,59.39-1.87c2.22,5.62,2.46,17.85,0,18.75s-56.74,4.58-58.61,1.81-.79-18.68-.79-18.68Z"/>
      <path class="cls-5" d="m230.84,91.24l60.98-.08c1.73,5.87,2.3,16.6-.32,16.76-17.08,1-37.31,2.01-49.56,1.99-6.77-.01-11.1-.34-11.12-1.16-.1-3.4.02-17.51.02-17.51Z"/>
      <path class="cls-22" d="m229.47,73.13s61.07-4.95,62.81.83c1.74,5.78,1.08,16.31-1.45,17s-43.83.17-60.01.55c-3.35.08-1.35-18.38-1.35-18.38Z"/>
      <path class="cls-3" d="m225.14,110.75s-.04-5.42.44-6.66c1.6-4.11,4.88-8.16,4.6-5.9-.27,2.26-.99,5.25-.99,5.25,0,0,2.24-4.69,2.89-4.3s-.02,5.97-.02,5.97c0,0,1-5.07,2.38-3.64s-2.1,5.03-2.37,12.13c-.19,5.2-5.88,3.65-6.95-2.86Z"/>
      <path class="cls-4" d="m303.97,175.93c-.74,0-1.31-.11-1.67-.38-.26-.19-.4-.46-.42-.79-.18-2.85,10.64-6.24,11.88-6.62l.15.48c-3.25.99-11.66,4.03-11.52,6.11.01.18.08.31.22.42.96.72,4.47-.07,7.87-.82,2.68-.6,5.44-1.21,7.37-1.21.03,0,.05,0,.08,0v.5s-.06,0-.08,0c-1.87,0-4.61.61-7.26,1.2-2.62.58-5,1.11-6.61,1.11Z"/>
      <path class="cls-4" d="m328.94,243.84l-.5-.06c.55-4.22,1.04-16.68-6.33-41.08-4.53-15.03-10.18-27.79-13.74-31.04-.65-.59-1.2-.85-1.64-.75-6.1,1.37-22.56-2.14-23.26-2.29l.11-.49c.17.04,17.05,3.63,23.05,2.29.6-.13,1.3.16,2.08.87,3.62,3.3,9.33,16.16,13.88,31.26,2.46,8.16,8.01,28.51,6.34,41.28Z"/>
      <path class="cls-3" d="m337.8,102.25s10.61,8.57,13.69,16.69-16.39,28.8-24.72,29.82-53.22-23.29-53.53-25.37.06-8.94,2.85-8.64c4.07.45,33.57,10.71,44.07,12.26,5.42.8,10.95-26.73,17.64-24.77Z"/>
      <path class="cls-16" d="m321.72,117.27s23.78,5.04,28.47,11.13c2.33,3.03,6.3-10.54,5.97-21.57s-20.3-20.55-23.55-19.56-10.89,30-10.89,30Z"/>
      <path class="cls-17" d="m327.99,113.04l-.5-.07c.07-.49,1.63-12.04,4.94-15.54,3.31-3.49,9.44-4.75,9.7-4.8l.1.49c-.06.01-6.23,1.28-9.44,4.66-3.21,3.38-4.79,15.14-4.81,15.26Z"/>
      <path class="cls-17" d="m277.98,162.58l-.47-.17c.12-.34,3.29-8.38,23.58-9.44,10.6-.56,19.28-.05,26.25.35,6.34.37,10.92.64,13.76-.11l.13.48c-2.92.76-7.53.49-13.92.12-6.96-.41-15.62-.91-26.19-.35-19.91,1.05-23.1,9.03-23.13,9.11Z"/>
      <path class="cls-17" d="m319.22,100.74c-5.68,0-14.39-11.71-14.76-12.21l.4-.3c.09.12,8.93,12,14.36,12,.02,0,.05,0,.07,0,3.58-.07,7.59-5.37,10.24-8.87,1.76-2.32,2.57-3.34,3.13-3.23l-.09.49c-.34.01-1.56,1.62-2.63,3.04-2.71,3.58-6.81,9-10.63,9.07-.03,0-.05,0-.08,0Z"/>
      <path class="cls-17" d="m351.68,124.34c-.15-.1-15.27-10.26-25.47-8.18l-.1-.49c10.41-2.11,25.7,8.15,25.85,8.25l-.28.41Z"/>
      <path class="cls-5" d="m313.24,73.4s2.76,3.64,6.06,3.58,6.4-3.03,6.4-3.03c0,0-.4,2.17-.41,3.05s-4.36,4.31-9.12,4.3c-1.98,0-3.13-3.62-3.03-4.12s.48-2.52.12-3.77Z"/>
      <path class="cls-8" d="m227.81,77.35s54.67-2.12,56.78,0,2.11,9.08,0,9.85-56.13,1.09-56.78,1.18-1.25-10.99,0-11.03Z"/>
      <path class="cls-8" d="m237.5,95.31s53.23-1.9,55.29,0c2.05,1.9,2.05,8.14,0,8.83s-54.66.98-55.29,1.06-1.22-9.85,0-9.89Z"/>
      <path class="cls-22" d="m240.9,127.76l-.63-17.84s-2.94-.57-3.6,0-.65,17.58,0,17.64,2.4.21,4.23.21Z"/>
      <path class="cls-22" d="m248.33,127.76l-.63-17.84s-2.94-.57-3.6,0-.65,17.58,0,17.64,2.4.21,4.23.21Z"/>
      <path class="cls-22" d="m280.8,125.75l-.4-17.85s-2.93-.61-3.6-.05-.88,17.57-.23,17.63,2.4.24,4.22.26Z"/>
      <path class="cls-22" d="m288.22,125.85l-.4-17.85s-2.93-.61-3.6-.05-.88,17.57-.23,17.63,2.4.24,4.22.26Z"/>
      <path class="cls-3" d="m289.97,118.71s-13.11-4.38-17.46-5.13c-4.35-.75-9.98-.81-7.91.16,2.06.97,4.97,1.96,4.97,1.96,0,0-5.16-.6-5.18.17s5.07,3.16,5.07,3.16c0,0-5.89-2.26-5.41-.33s11.59,6.48,15.46,9.06c4.32,2.89,15.47-5.95,10.47-9.05Z"/>
      <path class="cls-8" d="m338.5,253.98c-2,0-4.25-.56-4.39-.6l.12-.48c1.43.36,5.4,1.08,6.57.05l.33.38c-.56.49-1.56.65-2.63.65Z"/>
      <path class="cls-8" d="m339.45,256.6c-1.47,0-2.89-.46-2.98-.49l.16-.47s3.17,1.02,4.72.03l.27.42c-.61.39-1.39.52-2.17.52Z"/>
      <path class="cls-8" d="m352.54,252.96c-2,0-4.25-.56-4.39-.6l.12-.48c1.43.36,5.4,1.08,6.57.05l.33.38c-.56.49-1.56.65-2.63.65Z"/>
      <path class="cls-8" d="m353.48,255.59c-1.47,0-2.89-.46-2.98-.49l.16-.47s3.17,1.02,4.72.03l.27.42c-.61.39-1.39.52-2.17.52Z"/>
      <path class="cls-4" d="m361.34,241.07c-.44-.02-10.73-.44-14.15-2.53l.26-.43c3.32,2.02,13.81,2.46,13.91,2.46l-.02.5Z"/>
      <path class="cls-4" d="m339.23,238.38c-4.94,0-11.56-.14-13.46-.18v-.5c7.25.16,18.27.29,18.97.03l.23.44c-.29.16-2.69.21-5.74.21Z"/>
      <path class="cls-2" d="m227.01,80.75l-.02-.5c.15,0,14.58-.67,21.18-.67,4.7,0,20.67-.17,30.22-.26,3.96-.04,6.77-.07,7.11-.07v.5c-.34,0-3.15.03-7.11.07-9.55.1-25.52.26-30.22.26-6.58,0-21.01.66-21.15.67Z"/>
      <path class="cls-2" d="m247.37,85.87c-8.2,0-19.57-.28-19.72-.28v-.5c.22,0,20.4.5,26.33.17,5.93-.33,30.91-2.48,31.16-2.5l.04.5c-.25.02-25.24,2.17-31.17,2.5-1.49.08-3.88.11-6.63.11Z"/>
      <path class="cls-2" d="m251.58,99.72c-6.87,0-14.81-.29-14.93-.29l.02-.5c.18,0,18.04.66,23.29,0,5.29-.66,33.58-1,33.86-1v.5c-.28,0-28.54.34-33.8,1-1.78.22-4.97.3-8.44.3Z"/>
      <path class="cls-2" d="m237.5,103.09v-.5c.27,0,27.69-.18,31.95-1,4.31-.83,23.73-.52,24.55-.5v.5c-.21,0-20.2-.32-24.46.5-4.31.83-30.91,1-32.04,1Z"/>
      <path class="cls-16" d="m272.66,79.34s.33,15.83.5,17.17,3.33-5.83,3.33-5.83l3.67,6.17.67-17.83s-7.67-.33-8.17.33Z"/>
    </g>
    <g>
      <path class="cls-16" d="m250.97,248.27s-11.45-4.86-16.12,11.3-4.47,22.81,2.89,25.12c7.36,2.31,8.75-3.72,14.5-1.45s15.91,3.27,17.55-3.69c1.65-6.95-3.32-38.86-18.82-31.29Z"/>
      <path class="cls-3" d="m258.86,258.02s-2.59,24.45,1.56,28.1,20.92-1.89,25.38,5.14,3.13,59.25,3.13,59.25h-70.75s1.2-60.16,4.87-62.79,20.9,3.7,21.79-6.62c.43-4.94.9-18.91.9-18.91l13.12-4.18Z"/>
      <path class="cls-5" d="m245.22,276.39s7.45,5.91,12.85-3.18c0,0-.12,5.5.06,6.38s-5.3,5.62-6.15,5.62c-2.26,0-6.94-5.37-6.94-5.37l.19-3.44Z"/>
      <path class="cls-15" d="m238.82,287.17s4.28,14.47,11.98,15.6c7.71,1.12,9.6-16.1,11.8-15.6s14.15-5.45,19.5,3.05,4.88,75.01,4.88,75.01h-68.81s1.33-62.64,3.1-69.93,13.52-9.1,17.54-8.13Z"/>
      <path class="cls-3" d="m261.74,255.58s1.14,25.47-11.85,24.75c-8.93-.49-12.17-16.11-9.21-23.02,2.96-6.91,16.22-7.76,21.05-1.73Z"/>
      <ellipse class="cls-25" cx="246.05" cy="267.96" rx="1.02" ry=".79" transform="translate(-34.96 498.99) rotate(-86.87)"/>
      <ellipse class="cls-25" cx="254.78" cy="267.96" rx="1.02" ry=".79" transform="translate(-26.71 507.7) rotate(-86.87)"/>
      <path class="cls-3" d="m259.96,267.72s1.72-4.24,3.52-2.25-.62,7.06-2.45,6.93c-1.84-.13-2.04-2.97-1.07-4.69Z"/>
      <path class="cls-16" d="m254.46,262.16s1.9-.5,2.91,1.77c.59,1.32-5.03-1.32-2.91-1.77Z"/>
      <path class="cls-16" d="m247.24,262.44s-1.7-.99-3.28.92c-.92,1.12,5.2.07,3.28-.92Z"/>
      <path class="cls-3" d="m241.23,266.87s-1.22-4.41-3.24-2.63-.19,7.09,1.64,7.17,2.37-2.72,1.6-4.53Z"/>
      <path class="cls-5" d="m251.03,272.38h-.1c-.47-.02-1.73-.07-2.05-1.37l.49-.12c.19.8.87.95,1.52.98.09-.68-.09-3.61-.33-6.27l.5-.04c.38,4.21.45,6.47.2,6.73l-.22.09Z"/>
      <path class="cls-5" d="m250.25,274.94c-2.19,0-3.87-2.92-3.94-3.04l.44-.25s1.61,2.79,3.5,2.79c.02,0,.03,0,.05,0,1.07-.03,2.06-.94,2.95-2.72l.45.22c-.98,1.96-2.12,2.97-3.39,3-.02,0-.04,0-.06,0Z"/>
      <path class="cls-5" d="m240.33,269.82h-.5c.09-3.05-1.15-3.47-1.17-3.47l.13-.48c.07.02,1.63.48,1.53,3.96Z"/>
      <path class="cls-5" d="m261.11,270.97l-.5-.04c.28-3.46,1.89-3.75,1.96-3.76l.08.49s-1.29.28-1.54,3.31Z"/>
      <path class="cls-16" d="m237.84,263.01s1.29,1.68,4.38.19c7.78-3.75,9.38-12.25,9.38-12.25,0,0,.75,5.88,1.88,7.88s6.6,5.81,7.86,5.47,4.61-7.65-1.94-12.75-8.21-3.11-12.07-1.54-12.61,7.69-9.48,13.01Z"/>
      <circle class="cls-16" cx="252.1" cy="243.54" r="7.3"/>
      <path class="cls-8" d="m250.81,302.97s-6.48-17.5-10.72-15.25-7.69,15-4.21,17.25,14.93-2,14.93-2Z"/>
      <path class="cls-8" d="m252.1,302.97s6.48-17.5,10.72-15.25,7.69,15,4.21,17.25-14.93-2-14.93-2Z"/>
      <path class="cls-20" d="m267.03,286.3s-1.87,57.85,1.43,64.22,18.89,3.63,20.66-1.38-.92-50.88-2.12-54.38-5.26-11.49-19.97-8.47Z"/>
      <path class="cls-20" d="m239.03,286.3s1.87,57.85-1.43,64.22c-3.29,6.37-18.89,3.63-20.66-1.38s.92-50.88,2.12-54.38,5.26-11.49,19.97-8.47Z"/>
      <path class="cls-14" d="m182.03,372.78s-8.57-38.62,15.76-39.33,77.38,43.32,60.34,59.16c-17.05,15.84-74.91,10.34-76.1-19.82Z"/>
      <path class="cls-14" d="m325.93,372.78s4.79-38.71-19.54-39.42-83.36,43.41-66.31,59.25c17.05,15.84,84.66,10.34,85.85-19.82Z"/>
      <path class="cls-8" d="m81.04,399.92h175.92s-16.84-59.45-68.31-59.04-72.99,48.17-111.36,21.87c0,0-10.29,24.69,3.74,37.17Z"/>
      <path class="cls-8" d="m418.96,399.92h-175.92s16.84-59.45,68.31-59.04c51.47.41,72.99,48.17,111.36,21.87,0,0,10.29,24.69-3.74,37.17Z"/>
      <path class="cls-24" d="m234.97,286.86s-.01-6.6-1.33-10.82-2.11-9.79-.87-7.87c1.23,1.92,2.59,4.67,2.59,4.67,0,0-1.27-5.04-.51-5.15s3.79,4.61,3.79,4.61c0,0-2.46-4.54-.48-4.32s11.74,12.35,6.24,23.49c-2.3,4.66-5.69-.05-9.42-4.61Z"/>
      <path class="cls-20" d="m234.44,283.75s9.49,1.08,12.31,6.18c2.82,5.1-22.11,53.85-33.51,54.13s-17.32-8.71-19.11-10.71,30.41-53.71,40.31-49.6Z"/>
      <path class="cls-24" d="m266.08,286.86s.01-6.6,1.33-10.82c1.32-4.21,2.11-9.79.87-7.87-1.23,1.92-2.59,4.67-2.59,4.67,0,0,1.27-5.04.51-5.15s-3.79,4.61-3.79,4.61c0,0,2.46-4.54.48-4.32s-11.65,14.46-6.24,23.49c2.68,4.46,5.69-.05,9.42-4.61Z"/>
      <path class="cls-20" d="m266.08,283.75s-9.49,1.08-12.31,6.18c-2.82,5.1,22.11,53.85,33.51,54.13,11.4.29,17.32-8.71,19.11-10.71s-30.41-53.71-40.31-49.6Z"/>
      <path class="cls-20" d="m231.58,286.3s-4.72,40.78-8.02,47.15-27.66,4.92-29.43-.09,16.27-35.1,17.47-38.59,5.26-11.49,19.97-8.47Z"/>
      <path class="cls-20" d="m272.89,286.3s4.72,40.78,8.02,47.15,23.72,4.92,25.49-.09-15.48-34.82-16.68-38.31-3.62-11.52-16.83-8.75Z"/>
      <path class="cls-4" d="m299.86,322.65c-7.82-18.81-22.61-35.12-27.03-36.11l.11-.49c5.09,1.14,20,18.62,27.38,36.4l-.46.19Z"/>
      <path class="cls-4" d="m276.4,336.05c-.08-.14-8.32-14-10.08-15.95l.37-.33c1.79,1.99,9.8,15.46,10.14,16.03l-.43.26Z"/>
      <path class="cls-5" d="m233.76,273.47l-.17-.47c.18-.07,4.48-1.65,6.15-.81l-.22.45c-1.22-.61-4.56.39-5.75.83Z"/>
      <path class="cls-4" d="m245.19,297.74c-2.62-4.12-18.78-10.86-18.94-10.92l.19-.46c.67.28,16.47,6.87,19.17,11.12l-.42.27Z"/>
      <path class="cls-4" d="m199.73,322.22l-.46-.2c4.12-9.64,22.7-30.64,22.89-30.85l.37.33c-.19.21-18.71,21.15-22.8,30.72Z"/>
      <path class="cls-4" d="m222.53,337.86l-.37-.33c.14-.16,14.01-15.78,16.33-25.92l.49.11c-2.35,10.27-16.3,25.98-16.44,26.14Z"/>
      <rect class="cls-5" x="81.04" y="399.92" width="340.58" height="17.84"/>
      <path class="cls-4" d="m210.09,342.58c-4.99,0-11.03-1.8-14.34-9.38-.09-.2,0-.33.04-.38.25-.28.88-.11,3.53.67,4.64,1.37,13.29,3.92,23.02,3.94v.5c-9.81-.03-18.5-2.59-23.17-3.96-1.28-.38-2.42-.71-2.89-.77,6.15,13.67,21.64,7.5,21.8,7.44l.19.46c-.08.03-3.71,1.48-8.19,1.48Z"/>
      <path class="cls-4" d="m255.16,296.37l-.25-.43c.54-.32,13.22-7.7,18-7.24l-.05.5c-4.59-.46-17.57,7.1-17.7,7.17Z"/>
      <path class="cls-4" d="m288.11,339.23c-4.61,0-8.11-1.31-8.19-1.34l.18-.47c.16.06,16.03,5.99,24.51-7.92l.43.26c-4.69,7.68-11.56,9.47-16.94,9.47Z"/>
      <path class="cls-8" d="m245.95,271.2c-1.97,0-3.58-1.61-3.58-3.58s1.6-3.58,3.58-3.58,3.58,1.61,3.58,3.58-1.61,3.58-3.58,3.58Zm0-6.66c-1.7,0-3.08,1.38-3.08,3.08s1.38,3.08,3.08,3.08,3.08-1.38,3.08-3.08-1.38-3.08-3.08-3.08Z"/>
      <path class="cls-8" d="m255.04,271.2c-1.97,0-3.58-1.61-3.58-3.58s1.61-3.58,3.58-3.58,3.58,1.61,3.58,3.58-1.6,3.58-3.58,3.58Zm0-6.66c-1.7,0-3.08,1.38-3.08,3.08s1.38,3.08,3.08,3.08,3.08-1.38,3.08-3.08-1.38-3.08-3.08-3.08Z"/>
      <rect class="cls-8" x="249.13" y="266.97" width="2.97" height=".5"/>
      <rect class="cls-8" x="241.03" y="263.16" width=".5" height="3.96" transform="translate(-112.88 320.69) rotate(-56.61)"/>
      <polygon class="cls-8" points="258.45 266.46 258.28 266 261.64 264.71 261.82 265.18 258.45 266.46"/>
      <path class="cls-2" d="m246.62,400.02c-13.48-29.08-25.93-42.7-41.62-45.52-15.07-2.71-32.45,4.5-56.5,14.46-5.78,2.4-11.76,4.88-18.23,7.43-25.01,9.89-41.83,11.49-50,4.74-6.32-5.23-4.79-13.75-4.77-13.83l.49.09c-.02.08-1.49,8.32,4.6,13.36,5.51,4.55,18.57,7.41,49.49-4.82,6.47-2.56,12.44-5.04,18.22-7.43,24.13-10,41.57-17.23,56.78-14.49,15.87,2.85,28.42,16.55,41.98,45.8l-.45.21Z"/>
      <path class="cls-2" d="m238.53,400.65c-.2-.26-20.18-26.27-52.33-23.6-10.82.9-24.83,4.84-39.65,9.02-30.14,8.49-61.3,17.28-72.28,2.63l.4-.3c10.78,14.37,41.77,5.63,71.74-2.82,14.85-4.18,28.87-8.14,39.74-9.04,32.44-2.69,52.57,23.54,52.77,23.8l-.4.3Z"/>
      <path class="cls-2" d="m144.26,400.15l-.17-.47c16.19-5.98,39.46-12.19,58.4-7.85,11.37,2.6,15.71,7.71,15.89,7.93l-.38.32c-.04-.05-4.44-5.22-15.67-7.77-10.38-2.36-28.88-2.92-58.06,7.85Z"/>
      <path class="cls-2" d="m253.7,400.02l-.45-.21c13.56-29.25,26.12-42.95,41.98-45.8,15.2-2.74,32.65,4.49,56.78,14.49,5.78,2.4,11.76,4.87,18.22,7.43,17.07,6.75,39.5,13.07,49.49,4.82,6.09-5.04,4.62-13.28,4.6-13.36l.49-.09c.02.09,1.55,8.61-4.77,13.83-8.17,6.75-24.99,5.16-50-4.74-6.47-2.56-12.45-5.04-18.23-7.43-24.05-9.97-41.43-17.17-56.5-14.46-15.69,2.82-28.13,16.43-41.62,45.52Z"/>
      <path class="cls-2" d="m261.78,400.65l-.4-.3c.2-.26,20.34-26.49,52.77-23.8,10.87.9,24.9,4.85,39.75,9.04,29.97,8.45,60.97,17.18,71.74,2.81l.4.3c-10.98,14.64-42.14,5.86-72.28-2.63-14.82-4.18-28.83-8.12-39.65-9.02-32.16-2.66-52.13,23.34-52.33,23.6Z"/>
      <path class="cls-2" d="m356.05,400.15c-16.12-5.95-39.3-12.14-58.11-7.83-11.21,2.57-15.57,7.71-15.62,7.76l-.38-.32c.18-.22,4.52-5.33,15.89-7.93,10.45-2.39,29.06-2.97,58.39,7.85l-.17.47Z"/>
      <path class="cls-16" d="m241.32,263.83l-.08-.49c.44-.08,10.82-1.97,10.1-13.23l.5-.03c.39,6.12-2.49,9.54-4.98,11.33-2.69,1.93-5.42,2.41-5.53,2.43Z"/>
      <path class="cls-16" d="m246.89,248.51c-1.66-.55-2.63-1.45-2.89-2.66-.69-3.23,3.97-7.52,4.17-7.7l.34.37s-4.65,4.28-4.02,7.23c.22,1.03,1.08,1.8,2.56,2.29l-.16.47Z"/>
      <path class="cls-16" d="m256.4,249.71l-.12-.49s2.59-.65,3.33-2.64c.52-1.41.03-3.16-1.45-5.22l.41-.29c1.59,2.2,2.1,4.12,1.51,5.69-.83,2.25-3.57,2.93-3.68,2.95Z"/>
      <path class="cls-16" d="m232.76,280.49s-3.22-4.88-2.19-10.72c.53-3.01,1.79-4.46,2.8-5.62,1.1-1.26,1.89-2.16,1.23-4.5-.79-2.82,1.44-7.18,3.96-9.61,1.88-1.81,3.79-2.52,5.38-2l-.15.48c-1.4-.45-3.14.22-4.88,1.89-2.77,2.66-4.49,6.75-3.83,9.11.73,2.6-.18,3.65-1.34,4.97-.97,1.11-2.18,2.5-2.69,5.38-.99,5.64,2.09,10.31,2.12,10.36l-.42.28Z"/>
      <path class="cls-26" d="m242.99,260.83l-.11-.49c4.49-1.04,6.28-5.07,6.45-8.2.08-1.42-.24-2.13-.42-2.2-.07-.02-.2.06-.36.29-1.87,2.62-10.19,9.62-10.54,9.92l-.32-.38c.09-.07,8.62-7.26,10.46-9.83.37-.52.71-.54.93-.47.65.23.82,1.54.75,2.7-.18,3.31-2.08,7.56-6.84,8.66Z"/>
      <path class="cls-26" d="m251.54,246.52c-1.97-1.83-1.21-5.22-1.17-5.36l.49.11s-.73,3.26,1.02,4.89l-.34.37Z"/>
      <path class="cls-26" d="m252.9,246.6c-.2,0-.33-.02-.34-.02l-.35-.06.17-.31c1.58-2.86,2.15-6.26,2.16-6.29l.49.08c-.02.14-.54,3.25-2.02,6.1.37-.02.94-.12,1.42-.54.64-.57.94-1.54.9-2.9l.5-.02c.05,1.52-.31,2.63-1.07,3.3-.65.57-1.42.66-1.85.66Z"/>
      <path class="cls-26" d="m260.65,261.23c-.23-.33-5.57-8.18-6.8-11.04l.46-.2c1.21,2.82,6.7,10.88,6.75,10.96l-.41.28Z"/>
      <path class="cls-26" d="m264.47,265.96c-.37-7.47-5.22-13.66-5.27-13.72l.39-.31c.05.06,5,6.38,5.38,14.01l-.5.03Z"/>
      <path class="cls-16" d="m268.75,266.23c-.05-6.04-1.75-9.65-3.16-11.61-1.53-2.12-3.07-2.84-3.08-2.85l.21-.46c.26.12,6.44,3.03,6.54,14.91h-.5Z"/>
      <path class="cls-5" d="m266.3,273.38c-1.13-1.56-5.17-.74-5.21-.73l-.1-.49c.18-.04,4.41-.9,5.72.93l-.41.29Z"/>
    </g>
  </g>
</svg>