<?xml version="1.0" encoding="UTF-8"?>
<svg id="Object" xmlns="http://www.w3.org/2000/svg" viewBox="0 0 861.15 787.44">
  <defs>
    <style>
      .cls-1 {
        fill: #603813;
      }
    </style>
  </defs>
  <g>
    <path class="cls-1" d="m109.09,568.14c-6.61,2.3-11.98,4.44-17.5,6.04-15.84,4.57-27,14.47-34.18,29.15-2.78,5.69-5.44,11.47-8.69,16.89-8.04,13.42-20.6,19.85-35.72,21.44-2.13.22-5.3-1.62-6.7-3.48-7.36-9.74-7.83-20.55-3.65-31.71,10.35-27.59,46.26-52.86,75.77-53.27,11.99-.17,22.38,3.37,30.68,14.93Z"/>
    <path class="cls-1" d="m78.5,398.37c-1.05,6.59-1.6,12.09-2.85,17.44-4.36,18.75.45,35.15,12.43,49.71,12.38,15.05,16.6,31.52,10.07,50.38-1.57,4.53-4.02,6.38-8.7,6.73-15.04,1.13-25.6-6.43-32.72-18.28-15.2-25.29-18.16-52.48-8.48-80.42,4.63-13.35,13.57-23.03,30.25-25.56Z"/>
    <path class="cls-1" d="m227.3,490.08c-3.02,3.52-5.6,7.23-8.86,10.19-14.8,13.46-20.59,30.12-19.04,49.87.55,7.02.55,14.26-.53,21.18-1.95,12.45-9.59,21.64-19.66,28.66-1.93,1.35-5.86,1.37-8.17.38-11.61-5.03-17.62-14.83-18.23-26.86-1.77-34.62,12.19-62.06,40.51-81.81,10.61-7.4,23.05-7.48,33.98-1.61Z"/>
    <path class="cls-1" d="m106.82,518.51c1.19-5.95,1.98-10.41,2.98-14.82,3.13-13.78,1.05-26.78-8.86-36.88-18.53-18.9-19.96-40.89-14.57-64.97,1.29-5.75,3.85-6.82,8.86-6.12,10.98,1.52,19.6,7.21,25.82,15.9,18.97,26.52,21.7,55.09,8.76,84.89-4.31,9.92-11.54,17.6-23,22Z"/>
    <path class="cls-1" d="m185.29,605.53c4.68-4.05,7.96-6.73,11.07-9.61,11.72-10.86,16.35-24.26,13.2-39.9-5.25-25.98,7.68-44.33,25.17-60.69,1.3-1.22,5.82-.73,7.62.61,11.14,8.3,14.86,20.51,14.56,33.52-.69,29.85-13.46,53.62-38.48,70.26-9.13,6.07-19.34,8.64-33.13,5.81Z"/>
    <path class="cls-1" d="m17.34,650.03c6.31-1.83,11.41-3.22,16.44-4.79,13.25-4.14,22.7-12.7,26.66-25.95,7.75-25.94,27.72-36.79,51.59-42.92,1.86-.48,5.71,1.76,6.67,3.71,4.78,9.67,3.79,19.73.13,29.53-10.56,28.23-43.3,50.79-73.42,50.56-10.05-.08-19.58-2.02-28.07-10.13Z"/>
  </g>
  <g>
    <path class="cls-1" d="m454.88,202.78c-20.25-17.51-21.54-33.58-5.11-53.58,2.34-2.85,4.75-5.66,6.87-8.66,15.13-21.38,9.96-43.01-13.03-54.8-1.9-.97-3.8-1.94-6.18-3.16.22,1.21.19,1.94.49,2.5,7.8,14.74,6.04,28.36-4.63,41.03-1.73,2.06-3.3,4.3-4.71,6.59-19.15,31.12-.1,64.54,26.3,70.07Z"/>
    <path class="cls-1" d="m414.94,176.41c-11.65-12.54-11.99-23.63-1.59-37,1.48-1.91,3-3.78,4.36-5.8,9.66-14.35,7.16-29.37-6.3-38.03-1.11-.72-2.23-1.43-3.62-2.32.1.84.06,1.34.22,1.73,4.27,10.33,2.84,19.67-3.91,28.13-1.1,1.38-2.09,2.88-3,4.42-12.34,20.96-1.84,44.42,13.83,48.87Z"/>
    <path class="cls-1" d="m464.69,187.66c-3.37-5.7-4.83-11.54-1.5-17.62,1.51-2.77,3.57-5.25,5.47-7.79,4.05-5.39,4.94-11.05,2.32-16.7-4.03,5.53-7.96,11.11-12.09,16.55-7.92,10.43-6.2,18.84,5.8,25.57Z"/>
    <path class="cls-1" d="m170.01,347.82l.1-13.57-.76-.33c-5.02-2.17-10.03-3.29-14.88-3.33-7.1-.06-12.95,2.51-17.28,7.62-4.28,5.04-6.48,12.01-6.55,20.72-.07,8.76,1.98,15.78,6.08,20.85,4.16,5.15,9.95,7.79,17.22,7.84h.22c5.02,0,10.04-1.32,14.93-3.93l.66-.35.06-8.13-1.82.9c-4.98,2.46-9.55,3.71-13.69,3.66-4.81-.04-8.43-1.7-11.08-5.07-2.68-3.41-4.01-8.83-3.96-16.1.05-6.95,1.4-12.14,4.01-15.41,2.57-3.23,6.16-4.79,10.96-4.75,3.07.02,5.77.44,8.03,1.24l-.06,8.08,7.82.06Z"/>
    <path class="cls-1" d="m211.43,388.07h.18c6.49,0,11.79-2.62,15.73-7.78,3.9-5.1,5.91-12.29,5.98-21.35.06-8.54-1.71-15.36-5.27-20.26-3.65-5.02-8.83-7.59-15.42-7.64-6.67-.07-12.12,2.51-16.1,7.62-3.9,5.01-5.91,11.95-5.98,20.63-.07,8.81,1.79,15.84,5.51,20.9,3.81,5.18,8.97,7.83,15.36,7.88Zm-8.7-44.52c2.25-3.16,5.28-4.75,9.56-4.65,4.1.03,7.12,1.64,9.22,4.91,2.18,3.4,3.26,8.57,3.21,15.36-.05,7.05-1.28,12.43-3.64,15.99-2.29,3.44-5.37,5.05-9.3,5.06-3.97-.03-6.99-1.73-9.22-5.2-2.31-3.59-3.45-8.96-3.4-15.95.05-7.04,1.26-12.27,3.57-15.52Z"/>
    <polygon class="cls-1" points="253.79 380.04 253.73 387.41 274.62 387.57 274.68 380.2 267.9 380.15 268.02 364.15 276.17 364.21 276.13 370.05 283.46 370.11 283.6 352.03 276.26 351.97 276.23 356.84 268.08 356.78 268.21 339.8 282.84 339.91 282.79 346.73 290.42 346.79 290.53 332.6 254.15 332.32 254.1 339.69 259.9 339.74 259.6 380.09 253.79 380.04"/>
    <polygon class="cls-1" points="307.21 380.45 307.16 387.82 328.04 387.98 328.1 380.61 321.32 380.56 321.45 364.55 329.59 364.62 329.55 370.46 336.89 370.52 337.02 352.43 329.68 352.38 329.65 357.25 321.5 357.19 321.63 340.21 336.26 340.32 336.21 347.14 343.84 347.19 343.95 333.01 307.57 332.73 307.52 340.1 313.33 340.15 313.02 380.5 307.21 380.45"/>
    <polygon class="cls-1" points="360.63 380.86 360.58 388.23 397.92 388.51 398.02 374.33 390.4 374.27 390.34 381.08 374.75 380.97 374.88 363.99 382.05 364.04 382.01 369.89 389.35 369.94 389.48 351.86 382.15 351.8 382.11 356.67 374.93 356.62 375.05 340.61 389.68 340.73 389.63 347.54 397.26 347.6 397.37 333.41 361 333.14 360.94 340.51 366.75 340.55 366.44 380.9 360.63 380.86"/>
    <polygon class="cls-1" points="416.96 381.29 416.9 388.66 454.24 388.94 454.35 374.75 446.72 374.7 446.67 381.51 431.07 381.39 431.2 364.42 438.38 364.47 438.33 370.31 445.67 370.37 445.81 352.29 438.47 352.23 438.43 357.1 431.26 357.05 431.38 341.04 446.01 341.15 445.96 347.97 453.58 348.03 453.69 333.84 417.32 333.57 417.27 340.94 423.07 340.98 422.76 381.33 416.96 381.29"/>
    <path class="cls-1" d="m566.42,349.86l.1-12.73-.69-.35c-4.01-2.06-8.49-3.12-13.31-3.16-5.57-.03-10.08,1.31-13.41,4.03-3.4,2.78-5.15,6.51-5.18,11.1-.02,2.53.45,4.76,1.39,6.62.94,1.85,2.18,3.4,3.68,4.62,1.46,1.18,3.11,2.18,4.9,2.98,1.72.77,3.47,1.49,5.2,2.15,1.78.72,3.38,1.43,4.74,2.1,1.31.64,2.4,1.34,3.24,2.08.81.71,1.45,1.54,1.91,2.47.45.89.67,2,.66,3.28-.02,2.49-.85,4.39-2.55,5.79-1.74,1.44-4.29,2.17-7.49,2.13-3.08-.02-5.65-.35-7.65-.97l.06-7.56-7.73-.06-.1,12.98.75.33c4.32,1.91,9.07,2.9,14.12,2.94.08,0,.17,0,.25,0,5.58,0,10.13-1.42,13.51-4.23,3.5-2.9,5.29-6.83,5.32-11.68.02-2.71-.41-5.01-1.28-6.84-.86-1.81-2.03-3.36-3.47-4.62-1.39-1.21-3.01-2.27-4.8-3.14-1.72-.83-3.51-1.63-5.33-2.36-1.8-.73-3.42-1.39-4.86-1.98-1.33-.55-2.47-1.19-3.36-1.9-.86-.68-1.52-1.45-1.98-2.31-.44-.82-.66-1.85-.65-3.06.02-1.99.79-3.66,2.35-5.11,1.57-1.45,3.99-2.18,7.2-2.14,2.52.02,4.8.4,6.77,1.12l-.06,7.41,7.73.06Z"/>
    <polygon class="cls-1" points="587.09 382.58 587.04 389.95 606.96 390.1 607.01 382.73 601.21 382.69 601.34 365.71 624.97 365.89 624.84 382.87 619.03 382.82 618.97 390.19 638.89 390.35 638.95 382.98 633.14 382.93 633.45 342.58 639.26 342.63 639.31 335.26 619.39 335.1 619.34 342.47 625.14 342.52 625.02 358.52 601.39 358.34 601.51 342.34 607.32 342.38 607.38 335.01 587.46 334.86 587.4 342.23 593.21 342.28 592.9 382.63 587.09 382.58"/>
    <path class="cls-1" d="m680.61,391.64c.06,0,.12,0,.18,0,6.49,0,11.79-2.62,15.73-7.78,3.9-5.1,5.91-12.29,5.98-21.35.06-8.54-1.71-15.36-5.27-20.26-3.65-5.02-8.83-7.59-15.42-7.64-6.72-.1-12.12,2.51-16.1,7.62-3.9,5.01-5.91,11.95-5.98,20.63-.07,8.81,1.79,15.84,5.51,20.9,3.8,5.18,8.97,7.83,15.36,7.88Zm-8.7-44.52c2.25-3.16,5.3-4.71,9.56-4.65,4.1.03,7.12,1.64,9.22,4.91,2.18,3.4,3.27,8.57,3.21,15.36-.05,7.05-1.28,12.43-3.64,15.99-2.29,3.44-5.36,5.02-9.3,5.06-3.97-.03-6.99-1.73-9.22-5.2-2.31-3.59-3.45-8.96-3.4-15.95.05-7.04,1.26-12.26,3.57-15.52Z"/>
    <path class="cls-1" d="m722.97,383.62l-.06,7.37,20.89.16.06-7.37-6.77-.05.11-14.06,3.3.03c6.14.04,10.97-1.45,14.29-4.46,3.34-3.03,5.06-7.47,5.1-13.2.04-5.08-1.43-9.05-4.38-11.81-2.92-2.73-7.42-4.14-13.4-4.18l-18.77-.14-.06,7.37,5.81.04-.31,40.35-5.81-.04Zm17.86-21.29l-3.59-.03.14-18.93,4.07.03c3.49.03,6.05.7,7.61,2.01,1.49,1.25,2.23,3.69,2.2,7.24-.03,3.5-.91,6.01-2.62,7.46-1.77,1.5-4.37,2.27-7.82,2.22Z"/>
    <path class="cls-1" d="m705.56,301.21c1.16-1.03,2.35-2.08,3.62-3.2,13.87-12.23,13.63-18.2-1.19-29.84q-29.61-23.25-8.46-54.62c9.81-14.55,7.35-24.1-9.18-29.04-31.65-9.46-39.98-5.92-25.17-50.54.3-.9.81-1.72,1.07-2.62,3.35-12-.27-17.97-12.96-19.54-7.93-.98-16.05-.37-24.07-.79-16.66-.87-20.57-5.02-20.88-21.71-.07-3.78-.01-7.56-.03-11.35-.12-25.17-3.87-28.17-28.27-22.62q-33.28,7.58-45.54-24.55c-7.87-20.63-11.73-21.91-30.24-10.01q-29.99,19.28-52.79-8.56c-13.37-16.32-19.32-16.41-32.35.46-23.23,30.07-22.1,28.87-52.08,8.34-19.06-13.05-24.19-10.57-31.47,11.59-8.37,25.46-11.58,36.8-41.18,23.4-2.08-.94-4.66-.69-6.96-1.21-19.83-4.57-24.49-1.71-24.39,18.1.2,38.99-4.33,38.58-39.32,38.47-18.65-.06-22.95,6.32-17.87,23.79q10.53,36.28-25.22,49.11c-16.53,5.93-19.72,14.52-9.68,28.69,23.14,32.67,23.6,32.09-8.93,55.68-14.03,10.17-14.04,18.18-.86,29.06,1.5,1.24,3.07,2.39,4.65,3.52h-67.78v10.41h690.04v-10.41h-82.48Zm-494.52-18.23c.38-123.08,101.03-223.39,224.21-223.44,123.69-.05,225.02,101.49,224.36,225.3-.03,5.5-.29,10.95-.72,16.36h-83.82c25.2-17.06,37.38-41.6,27.72-56.63-5.39-8.39-16.92-12.08-31.28-10.17.58-3.6,1.03-7.19,1.35-10.7.4-4.4-1.05-8.65-4.06-11.95-3.06-3.35-7.42-5.27-11.96-5.27h-233.04c-4.54,0-8.89,1.92-11.96,5.27-3.02,3.3-4.46,7.55-4.06,11.95,2.66,29.47,13.12,56.06,28.99,77.5h-125.02c-.47-6.02-.74-12.09-.72-18.23Zm334.15,16.11c10.35-14.5,18.21-31.18,22.92-48.73,9.85-2.29,17.61-1.04,20.45,3.37,2.32,3.62,1.37,9.43-2.63,15.95-4.41,7.2-11.87,14.4-21.01,20.27-6.5,4.17-13.3,7.31-19.73,9.13Zm-352.9-20.65c3.13-134.45,112.58-238.82,246.13-237.55,133.36,1.27,245.02,114.39,239.48,254.25-.08,2.03-.21,4.05-.35,6.07h-10.36c.45-5.74.7-11.52.72-17.36.31-127.48-104.11-232.15-231.53-232.55-128.8-.41-233.48,103.55-233.62,232.01,0,6.03.25,11.99.69,17.9h-10.61c-.53-7.51-.74-15.1-.56-22.77Z"/>
    <path class="cls-1" d="m98,424.67h109.55c-7.78,29.77-5.44,30.06,30.21,31.03,19.85.55,24.03,4.58,24.97,24.12q1.88,38.85,38.83,28.04c16.84-4.92,23.01-2.12,29.47,14.04,2.44,6.1,3.78,12.64,6.08,18.81,4.89,13.07,11.84,15.84,24.05,8.97,7.31-4.11,13.76-9.72,20.91-14.15,8.96-5.54,17.46-6.63,24.6,3.51,5.12,7.27,10.7,14.26,16.54,20.97,8.05,9.25,15.47,9.26,23.57.06,5.27-5.99,9.77-12.65,14.87-18.79,9.83-11.83,16.34-12.68,28.83-4.24,6.6,4.46,13.17,8.99,19.95,13.18,10.58,6.54,17.66,3.26,21.71-8.14,2.53-7.11,6-13.96,7.83-21.23,3.22-12.75,11.31-16.81,23.22-14.06,7.3,1.69,14.25,4.84,21.46,7,14.89,4.45,22.76-1.07,23.49-16.55.36-7.55.3-15.13.16-22.69-.21-11.56,5.99-17.31,16.83-18.55,4.67-.53,9.44-.09,17.43-.09,23.52,1.72,30.57-5.74,20-31.24h125.45v-10.41H98v10.41Zm511.02,0c-41.59,50.97-104.83,83.51-174.51,82.45-69.75-.1-132.1-32.27-173.1-82.45h347.61Zm-174.93,101.1c-81.64-.06-152.93-40.25-196.57-101.1h13.27c42.53,55.24,109.42,90.85,184.69,90.82,74.53.71,141.49-35.23,184.19-90.82h12.37c-44.85,61.51-117.81,102.4-197.94,101.1Z"/>
  </g>
  <g>
    <path class="cls-1" d="m713.32,616.58c-6.61,2.3-11.98,4.44-17.51,6.04-15.84,4.57-27,14.47-34.18,29.15-2.78,5.69-5.44,11.47-8.69,16.89-8.04,13.42-20.6,19.85-35.72,21.44-2.13.22-5.3-1.62-6.7-3.48-7.36-9.74-7.83-20.55-3.65-31.71,10.35-27.59,46.26-52.86,75.77-53.27,11.99-.17,22.38,3.37,30.68,14.93Z"/>
    <path class="cls-1" d="m682.73,446.82c-1.05,6.59-1.6,12.09-2.85,17.44-4.36,18.75.45,35.15,12.43,49.71,12.38,15.05,16.6,31.52,10.07,50.38-1.57,4.53-4.02,6.38-8.7,6.73-15.04,1.13-25.6-6.43-32.72-18.28-15.2-25.29-18.16-52.48-8.48-80.42,4.63-13.35,13.57-23.03,30.25-25.56Z"/>
    <path class="cls-1" d="m831.54,538.53c-3.02,3.52-5.6,7.23-8.86,10.19-14.8,13.46-20.59,30.12-19.04,49.87.55,7.02.55,14.26-.53,21.18-1.95,12.45-9.59,21.64-19.66,28.66-1.93,1.35-5.86,1.37-8.17.38-11.61-5.03-17.62-14.83-18.23-26.86-1.77-34.62,12.19-62.06,40.51-81.81,10.61-7.4,23.05-7.48,33.98-1.61Z"/>
    <path class="cls-1" d="m711.06,566.96c1.19-5.95,1.98-10.41,2.98-14.82,3.13-13.78,1.05-26.78-8.86-36.88-18.53-18.9-19.96-40.89-14.57-64.97,1.29-5.75,3.85-6.82,8.86-6.12,10.98,1.52,19.6,7.21,25.82,15.9,18.97,26.52,21.7,55.09,8.76,84.89-4.31,9.92-11.54,17.6-23,22Z"/>
    <path class="cls-1" d="m789.52,653.98c4.68-4.05,7.96-6.73,11.07-9.61,11.72-10.86,16.35-24.26,13.2-39.9-5.25-25.98,7.68-44.33,25.17-60.69,1.3-1.22,5.82-.73,7.62.61,11.14,8.3,14.86,20.51,14.56,33.52-.69,29.85-13.46,53.62-38.48,70.26-9.13,6.07-19.34,8.64-33.13,5.81Z"/>
    <path class="cls-1" d="m621.57,698.48c6.31-1.83,11.41-3.22,16.44-4.79,13.25-4.14,22.7-12.7,26.66-25.95,7.75-25.94,27.72-36.79,51.59-42.92,1.86-.48,5.71,1.76,6.67,3.71,4.78,9.67,3.79,19.73.13,29.53-10.56,28.23-43.3,50.79-73.42,50.56-10.05-.08-19.58-2.02-28.07-10.13Z"/>
  </g>
  <g>
    <path class="cls-1" d="m383.48,695.42c-6.61,2.3-11.98,4.44-17.51,6.04-15.84,4.57-27,14.47-34.18,29.15-2.78,5.69-5.44,11.47-8.69,16.89-8.04,13.42-20.6,19.85-35.72,21.44-2.13.22-5.3-1.62-6.7-3.48-7.36-9.74-7.83-20.55-3.65-31.71,10.35-27.59,46.26-52.86,75.77-53.27,11.99-.17,22.38,3.37,30.68,14.93Z"/>
    <path class="cls-1" d="m352.89,525.66c-1.05,6.59-1.6,12.09-2.85,17.44-4.36,18.75.45,35.15,12.43,49.71,12.38,15.05,16.6,31.52,10.07,50.38-1.57,4.53-4.02,6.38-8.7,6.73-15.04,1.13-25.6-6.43-32.72-18.28-15.2-25.29-18.16-52.48-8.48-80.42,4.63-13.35,13.57-23.03,30.25-25.56Z"/>
    <path class="cls-1" d="m501.7,617.36c-3.02,3.52-5.6,7.23-8.86,10.19-14.8,13.46-20.59,30.12-19.04,49.87.55,7.02.55,14.26-.53,21.18-1.95,12.45-9.59,21.64-19.66,28.66-1.93,1.35-5.86,1.37-8.17.38-11.61-5.03-17.62-14.83-18.23-26.86-1.77-34.62,12.19-62.06,40.51-81.81,10.61-7.4,23.05-7.48,33.98-1.61Z"/>
    <path class="cls-1" d="m381.22,645.79c1.19-5.95,1.98-10.41,2.98-14.82,3.13-13.78,1.05-26.78-8.86-36.88-18.53-18.9-19.96-40.89-14.57-64.97,1.29-5.75,3.85-6.82,8.86-6.12,10.98,1.52,19.6,7.21,25.82,15.9,18.97,26.52,21.7,55.09,8.76,84.89-4.31,9.92-11.54,17.6-23,22Z"/>
    <path class="cls-1" d="m459.68,732.81c4.68-4.05,7.96-6.73,11.07-9.61,11.72-10.86,16.35-24.26,13.2-39.9-5.25-25.98,7.68-44.33,25.17-60.69,1.3-1.22,5.82-.73,7.62.61,11.14,8.3,14.86,20.51,14.56,33.52-.69,29.85-13.46,53.62-38.48,70.26-9.13,6.07-19.34,8.64-33.13,5.81Z"/>
    <path class="cls-1" d="m291.74,777.31c6.31-1.83,11.41-3.22,16.44-4.79,13.25-4.14,22.7-12.7,26.66-25.95,7.75-25.94,27.72-36.79,51.59-42.92,1.86-.48,5.71,1.76,6.67,3.71,4.78,9.67,3.79,19.73.13,29.53-10.56,28.23-43.3,50.79-73.42,50.56-10.05-.08-19.58-2.02-28.07-10.13Z"/>
  </g>
</svg>