<?xml version="1.0" encoding="UTF-8"?>
<svg id="Layer_1" data-name="Layer 1" xmlns="http://www.w3.org/2000/svg" viewBox="0 0 472.64 130.78">
  <defs>
    <style>
      .cls-1, .cls-2 {
        fill: #fff;
      }

      .cls-3 {
        fill: #f6f7f0;
      }

      .cls-4 {
        fill: none;
      }

      .cls-4, .cls-5, .cls-2 {
        stroke: #042f40;
        stroke-linecap: round;
        stroke-linejoin: round;
        stroke-width: 1.71px;
      }

      .cls-6 {
        fill: #ebe7d3;
      }

      .cls-7 {
        fill: #042f40;
      }

      .cls-8, .cls-5 {
        fill: #79e1ff;
      }

      .cls-9 {
        fill: #0e69af;
      }

      .cls-10 {
        fill: #18222b;
      }

      .cls-11 {
        fill: #a7a8a3;
      }

      .cls-12 {
        fill: #f27226;
      }

      .cls-13 {
        fill: #0db04b;
      }
    </style>
  </defs>
  <g>
    <path class="cls-10" d="m44.83,95.09c9.29-10.28,18.97-20.21,28.1-30.64,2.3-2.63,2.78-6.9,0-9.46-2.52-2.32-7-2.81-9.46,0-9.13,10.43-18.81,20.35-28.1,30.64-2.34,2.6-2.75,6.93,0,9.46,2.56,2.35,6.95,2.77,9.46,0h0Z"/>
    <g>
      <path class="cls-10" d="m43.56,113.49v-54.35c0-5.58-4.65-10.23-10.23-10.23s-10.23,4.65-10.23,10.23v54.35c0,5.58,4.65,5.27,10.23,5.27s10.23.31,10.23-5.27h0Z"/>
      <path class="cls-7" d="m45.42,112.09c0,.6-.49,1.08-1.08,1.08h-22.01c-.6,0-1.08-.48-1.08-1.08h0c0-.6.49-1.09,1.08-1.09h22.01c.6,0,1.08.49,1.08,1.09h0Z"/>
      <path class="cls-7" d="m45.42,106.1c0,.6-.49,1.09-1.08,1.09h-22.01c-.6,0-1.08-.48-1.08-1.09h0c0-.6.49-1.09,1.08-1.09h22.01c.6,0,1.08.49,1.08,1.09h0Z"/>
      <path class="cls-7" d="m45.42,100.11c0,.6-.49,1.09-1.08,1.09h-22.01c-.6,0-1.08-.48-1.08-1.09h0c0-.6.49-1.09,1.08-1.09h22.01c.6,0,1.08.49,1.08,1.09h0Z"/>
      <path class="cls-7" d="m45.42,94.11c0,.6-.49,1.09-1.08,1.09h-22.01c-.6,0-1.08-.49-1.08-1.09h0c0-.6.49-1.09,1.08-1.09h22.01c.6,0,1.08.49,1.08,1.09h0Z"/>
      <path class="cls-7" d="m45.42,88.12c0,.6-.49,1.09-1.08,1.09h-22.01c-.6,0-1.08-.49-1.08-1.09h0c0-.6.49-1.08,1.08-1.08h22.01c.6,0,1.08.48,1.08,1.08h0Z"/>
      <path class="cls-7" d="m45.42,82.13c0,.6-.49,1.09-1.08,1.09h-22.01c-.6,0-1.08-.49-1.08-1.09h0c0-.6.49-1.09,1.08-1.09h22.01c.6,0,1.08.48,1.08,1.09h0Z"/>
      <path class="cls-7" d="m45.42,76.13c0,.6-.49,1.09-1.08,1.09h-22.01c-.6,0-1.08-.48-1.08-1.09h0c0-.6.49-1.09,1.08-1.09h22.01c.6,0,1.08.49,1.08,1.09h0Z"/>
      <path class="cls-7" d="m45.42,70.14c0,.6-.49,1.08-1.08,1.08h-22.01c-.6,0-1.08-.48-1.08-1.08h0c0-.6.49-1.09,1.08-1.09h22.01c.6,0,1.08.49,1.08,1.09h0Z"/>
      <path class="cls-7" d="m45.42,64.15c0,.6-.49,1.09-1.08,1.09h-22.01c-.6,0-1.08-.49-1.08-1.09h0c0-.6.49-1.08,1.08-1.08h22.01c.6,0,1.08.48,1.08,1.08h0Z"/>
    </g>
    <path class="cls-7" d="m63.29,38.99c0,15.84-12.21,26.25-27.28,26.25s-27.28-10.41-27.28-26.25,12.21-28.68,27.28-28.68,27.28,12.84,27.28,28.68Z"/>
    <g>
      <path class="cls-1" d="m46.08,39.95c-4.58,0-8.29,3.71-8.29,8.29s3.71,8.29,8.29,8.29,8.29-3.71,8.29-8.29-3.71-8.29-8.29-8.29Zm0,14.13c-3.23,0-5.84-2.62-5.84-5.84s2.62-5.84,5.84-5.84,5.84,2.62,5.84,5.84-2.62,5.84-5.84,5.84Z"/>
      <g>
        <path class="cls-10" d="m52.48,48.23c0,3.53-2.86,6.4-6.4,6.4s-6.4-2.86-6.4-6.4,2.86-6.39,6.4-6.39,6.4,2.86,6.4,6.39Z"/>
        <path class="cls-8" d="m49.23,48.23c0,1.74-1.41,3.15-3.15,3.15s-3.15-1.41-3.15-3.15,1.41-3.15,3.15-3.15,3.15,1.41,3.15,3.15Z"/>
      </g>
    </g>
    <g>
      <path class="cls-8" d="m33.85,15.68c-8.64,0-15.63,7-15.63,15.63s7,15.64,15.63,15.64,15.63-7,15.63-15.64-7-15.63-15.63-15.63Zm0,26.65c-6.09,0-11.02-4.93-11.02-11.02s4.93-11.02,11.02-11.02,11.02,4.93,11.02,11.02-4.93,11.02-11.02,11.02Z"/>
      <g>
        <path class="cls-10" d="m45.91,31.31c0,6.66-5.4,12.06-12.06,12.06s-12.06-5.4-12.06-12.06,5.4-12.06,12.06-12.06,12.06,5.4,12.06,12.06Z"/>
        <path class="cls-8" d="m36.39,31.31c0,1.4-1.14,2.54-2.54,2.54s-2.54-1.14-2.54-2.54,1.14-2.54,2.54-2.54,2.54,1.14,2.54,2.54Z"/>
        <g>
          <g>
            <path class="cls-1" d="m35.72,23.87c-1.05,2.41-2.78,2.41-3.83,0l-1.16-2.66c-1.05-2.41.24-4.38,2.86-4.38h.43c2.63,0,3.92,1.97,2.86,4.38l-1.16,2.66Z"/>
            <path class="cls-1" d="m31.98,38.75c1.05-2.41,2.78-2.41,3.83,0l1.16,2.66c1.05,2.41-.23,4.38-2.86,4.38h-.43c-2.63,0-3.92-1.97-2.86-4.38l1.16-2.66Z"/>
          </g>
          <g>
            <path class="cls-1" d="m41.94,33.23c-2.41-1.05-2.41-2.78,0-3.83l2.66-1.16c2.41-1.05,4.38.23,4.38,2.86v.43c0,2.63-1.97,3.92-4.38,2.86l-2.66-1.16Z"/>
            <path class="cls-1" d="m25.76,29.4c2.41,1.05,2.41,2.78,0,3.83l-2.66,1.16c-2.41,1.06-4.38-.23-4.38-2.86v-.43c0-2.63,1.97-3.92,4.38-2.86l2.66,1.16Z"/>
          </g>
          <g>
            <path class="cls-1" d="m40.43,27.37c-2.45.96-3.67-.26-2.71-2.71l1.06-2.7c.96-2.45,3.26-2.93,5.12-1.07l.3.3c1.86,1.86,1.38,4.16-1.07,5.12l-2.7,1.06Z"/>
            <path class="cls-1" d="m27.27,35.25c2.45-.96,3.67.26,2.71,2.71l-1.06,2.7c-.96,2.45-3.26,2.93-5.12,1.07l-.3-.3c-1.86-1.86-1.38-4.16,1.07-5.12l2.7-1.05Z"/>
          </g>
          <g>
            <path class="cls-1" d="m38.22,38.39c-.96-2.45.26-3.67,2.71-2.71l2.7,1.06c2.45.96,2.93,3.26,1.07,5.12l-.3.3c-1.86,1.86-4.16,1.38-5.12-1.07l-1.06-2.7Z"/>
            <path class="cls-1" d="m29.48,24.24c.96,2.45-.26,3.67-2.71,2.71l-2.7-1.06c-2.45-.96-2.93-3.26-1.07-5.12l.3-.31c1.86-1.86,4.16-1.38,5.12,1.07l1.06,2.7Z"/>
          </g>
        </g>
      </g>
    </g>
    <path class="cls-3" d="m55.65,2.72c-10.76-3.23-23.33-3.95-33.9-.15C-.72,10.62-3.82,30.46,3.62,50.92c2.82,7.74,12.86,25.26,19.84,32.24,0,0,2.64-2.64,8.22-2.64,0,0,2.84-23.25-8.22-33.94-8.74-8.46-15.03-22.79,0-30.69,3.24-1.7,15.03-4.5,24.18-1.4,0,0-10.54,13.79-1.71,21.08l8.83,7.28s-9.92,13.02-11.78,15.5c-1.86,2.48-3.1,6.67,6.82,15.19,9.92,8.52,14.02,15.96,19.02,14.41,5-1.55,4.69-10.23,4.69-10.23,0,0,2.97-1.09,3.16-3.72.1-1.32-2.39-3.18-2.39-3.18,0,0,2.32.46,3.8-.85,0,0-.85-3.88,0-5.66,0,0,5.73-.08,5.5-4.34-.23-4.26-5.42-11.01-5.89-13.49-.47-2.48,3.8-1.01,2.56-8.21-1.24-7.21,2.23-27.51-24.61-35.57Z"/>
    <path class="cls-6" d="m79.56,42.4c-1.73-2.83-6.66,0-6.66,0,0,0,3.72-.5,3.33,1.69-.39,2.19-2.32,4.82-.39,8.31,1.94,3.49,1.63,4.57,1.4,4.88-.23.31-3.72,2.09-.46,5.89,0,0,.14-2.92,2.25-1.86.77.39,1.2,2.69,1.2,2.69,0,0,5.77-.44,2.16-8.15-3.55-7.59-4.21-7.97-4.6-9.11-.66-1.9,2.64-2.94,1.78-4.34Z"/>
    <path class="cls-11" d="m71.43,44.88c.04.41,2.25-.37,3.64.7.59.46,2.47-1.69.39-2.94-2.09-1.25-4.11,1.47-4.03,2.24Z"/>
    <path class="cls-6" d="m66.08,9.07c2.4,1.18,10.43,7.08,5.35,7.49-5.09.41-6.64.83-4.98,2.27,1.65,1.45,3.09,12.92,5.83,15.5,2.74,2.58.3,6.05-2.72,9.64-3.01,3.59.86,5.09,1.87,8.37,1.01,3.28-3.18,16.71,0,19.81,3.18,3.1,1.99,3.72-.52,5.48-2.5,1.76-1.06,4.24-1.06,4.24.67,2.46.72,6.3-3.31,5.27-4.91-1.26-23.98-25.52-18.47-31.85,6.36-7.32,9.63-10.07,8.87-12.97-.93-3.53-7.13-4.88-11.26-13.76-2.06-4.43,7.47-17.64,11.57-19.79,1.73-.9,5.58-1.28,8.83.31Z"/>
    <path class="cls-6" d="m24.46,80.14c2.4-1.86,5.11-1.55,5.35-2.4.4-1.47,2.38-17.43-6.28-27.2-2.56-2.89-7.52,1.16-9.07,8.29s8.49,22.48,10,21.31Z"/>
    <path class="cls-6" d="m12.4,25.04c.52-2.17,5.49-12.63,19.43-13.33,2.07-.1,2.27-2.17-1.14-3.2-3.41-1.03-18.78,1.03-23.28,15.84-.3.97,4.99.7,4.99.7Z"/>
    <path class="cls-3" d="m8.11,127.96c-.46-11.7.91-19.47,5.89-26.82,6.51-9.61,14.98-9.28,23.56-6.51,9.61,3.1,38.28,18.55,38.28,32.55,0,2.48-2.22,3.82-34.04,3.56-32.45-.26-33.56.35-33.69-2.79Z"/>
    <path class="cls-6" d="m49.81,130.76s-4.39-17.58-13.17-24.66c-3.29-2.65-10.38-5.11-16.27.31-6.2,5.73-6.92,15.15-6.92,24.05,0,0,28.36.28,36.37.29Z"/>
  </g>
  <path class="cls-9" d="m297.18,107.2c0-2.95,2.4-5.34,5.35-5.33,2.95,0,5.34,2.4,5.33,5.35,0,2.94-2.38,5.32-5.32,5.33-2.94,0-5.33-2.39-5.33-5.33,0,0,0-.01,0-.02m9.38,0c-.17-2.2-2.1-3.85-4.3-3.68s-3.85,2.1-3.68,4.3c.16,2.06,1.86,3.66,3.93,3.69,2.27-.06,4.06-1.94,4-4.21,0-.03,0-.06,0-.1m-6.1-3h2.25c1.45,0,2.24.5,2.24,1.78.06.83-.56,1.56-1.39,1.62-.07,0-.13,0-.2,0l1.62,2.65h-1.15l-1.56-2.61h-.68v2.61h-1.13v-6.05Zm1.15,2.58h1c.66,0,1.24-.1,1.24-.9s-.65-.83-1.23-.83h-1v1.73Z"/>
  <path class="cls-13" d="m279.97,50.56c-7.85.11-14.8,5.09-17.43,12.48-.14.37-.62,1.91-.62,1.91l-11,47.6h25.25c8.68,0,16-6.26,18.1-14.69h0l10.92-47.31h-25.22Z"/>
  <path class="cls-12" d="m237.93,36.78c-8.29.02-15.56,5.55-17.8,13.54-.17.59-.3,1.18-.41,1.78l-17.18,74.23h25.27c8.5-.03,15.89-5.83,17.94-14.08h0l17.44-75.47h-25.26Z"/>
  <path class="cls-9" d="m189.54,50.56c-8.15.13-15.28,5.49-17.68,13.28-.06.17-.11.34-.16.52l-.42,1.66-10.74,46.53h25.85c7.68-.12,14.46-5.04,16.94-12.31l1-4.43,10.46-45.25h-25.25Z"/>
  <path class="cls-1" d="m184.83,66.02h-.39c-1.86.02-3.65.7-5.06,1.91-1.32,1.01-2.31,2.4-2.84,3.97h0l-5.79,25.15h.33c1.87-.02,3.68-.7,5.1-1.93,1.51-1.16,2.57-2.8,3-4.65l1.27-5.46h11.5c1.87-.04,3.67-.73,5.1-1.94,1.5-1.15,2.56-2.79,3-4.63l.07-.33h-18.09l1.2-5.19h15.65c1.86-.02,3.65-.69,5.06-1.9,1.49-1.16,2.55-2.79,3-4.63l.08-.33-22.19-.04Z"/>
  <path class="cls-1" d="m248.71,67.54c-1.02-1.01-2.42-1.55-3.85-1.5h-22.09l-7.13,31h.33c1.87-.02,3.68-.7,5.1-1.93,1.51-1.16,2.57-2.8,3-4.65l1.28-5.52h15.3c1.79.15,3.57-.37,5-1.46,1.54-1.32,2.62-3.1,3.09-5.07l1.34-5.74c.1-.46.15-.94.16-1.41.03-1.4-.52-2.75-1.53-3.72Zm-6.89,10.56h-14.89l1.2-5.2h14.9l-1.21,5.2Z"/>
  <path class="cls-1" d="m293.65,67.56c-1.02-1.01-2.41-1.56-3.85-1.5h-23.26v.22c-.1.45-.15.9-.17,1.36-.06,1.41.46,2.78,1.44,3.79,1.02,1.01,2.41,1.56,3.85,1.5h4.88l-5.56,24.12h.33c1.88-.02,3.69-.7,5.11-1.93,1.51-1.16,2.57-2.8,3-4.65l4.07-17.54h11.5v-.22c.1-.46.16-.94.16-1.41.05-1.4-.5-2.76-1.5-3.74Z"/>
  <polyline class="cls-4" points="281.86 64.85 281.86 54.31 294.63 54.31 294.63 37.21"/>
  <line class="cls-4" x1="270.79" y1="56.57" x2="270.79" y2="22.88"/>
  <polyline class="cls-4" points="214 53.74 214 42.82 189.01 42.82 189.01 32.5"/>
  <line class="cls-4" x1="200.3" y1="56.57" x2="200.3" y2="48.32"/>
  <line class="cls-4" x1="200.3" y1="38.06" x2="200.3" y2="7.7"/>
  <polyline class="cls-4" points="184.22 67.14 184.22 56.57 175.33 56.57 175.33 20.48"/>
  <polyline class="cls-4" points="253.69 50.32 253.69 38.06 265.84 38.06"/>
  <polyline class="cls-4" points="274.39 38.06 281.86 38.06 281.86 12.4"/>
  <line class="cls-4" x1="228.51" y1="50.32" x2="228.51" y2="20.13"/>
  <polyline class="cls-4" points="238.83 48.32 238.83 27.37 249.16 27.37 249.16 9.55"/>
  <path class="cls-5" d="m178.35,17.46c0,1.67-1.35,3.02-3.02,3.02s-3.02-1.35-3.02-3.02,1.35-3.02,3.02-3.02,3.02,1.35,3.02,3.02Z"/>
  <path class="cls-2" d="m192.03,29.51c0,1.67-1.35,3.02-3.02,3.02s-3.02-1.35-3.02-3.02,1.35-3.02,3.02-3.02,3.02,1.35,3.02,3.02Z"/>
  <path class="cls-5" d="m203.32,4.68c0,1.67-1.35,3.02-3.02,3.02s-3.02-1.35-3.02-3.02,1.35-3.02,3.02-3.02,3.02,1.35,3.02,3.02Z"/>
  <path class="cls-2" d="m231.41,16.56c0,1.67-1.36,3.02-3.02,3.02s-3.02-1.35-3.02-3.02,1.35-3.02,3.02-3.02,3.02,1.35,3.02,3.02Z"/>
  <path class="cls-5" d="m252.18,6.53c0,1.67-1.35,3.02-3.02,3.02s-3.02-1.35-3.02-3.02,1.35-3.02,3.02-3.02,3.02,1.35,3.02,3.02Z"/>
  <path class="cls-5" d="m273.81,19.86c0,1.67-1.35,3.02-3.02,3.02s-3.02-1.35-3.02-3.02,1.35-3.02,3.02-3.02,3.02,1.35,3.02,3.02Z"/>
  <path class="cls-2" d="m284.88,8.24c0,1.67-1.35,3.02-3.02,3.02s-3.02-1.35-3.02-3.02,1.35-3.02,3.02-3.02,3.02,1.35,3.02,3.02Z"/>
  <path class="cls-5" d="m297.65,33.81c0,1.67-1.35,3.02-3.02,3.02s-3.02-1.35-3.02-3.02,1.35-3.02,3.02-3.02,3.02,1.35,3.02,3.02Z"/>
  <g>
    <path class="cls-3" d="m385.07,124.09c-.93-28.61,3.61-57.27,31.39-57.27s30.71,28.66,31.39,57.32"/>
    <path class="cls-7" d="m450.21,119.75c0,1.67.03,3.03-1.64,3.03h-64.28c-1.67,0-1.64-1.36-1.64-3.03h0c0-1.67-.03-3.03,1.64-3.03h64.28c1.67,0,1.64,1.36,1.64,3.03h0Z"/>
    <path class="cls-6" d="m453.06,124.44c0,1.67.03,3.03-1.64,3.03h-69.9c-1.67,0-1.64-1.36-1.64-3.03h0c0-1.67-.03-3.03,1.64-3.03h69.9c1.67,0,1.64,1.36,1.64,3.03h0Z"/>
    <g>
      <path class="cls-3" d="m470.84,23l-6.08,7.24c0,.09.02.18.03.27.57,7.44-4.99,13.94-12.43,14.51-7.44.57-13.94-4.99-14.51-12.43-.56-7.33,4.84-13.73,12.11-14.47l6.16-7.34c-2.06-.48-4.22-.65-6.44-.48-11.74.9-20.52,11.15-19.61,22.89.9,11.74,11.15,20.52,22.89,19.61,11.74-.91,20.52-11.15,19.61-22.89-.19-2.45-.79-4.78-1.73-6.91Z"/>
      <path class="cls-7" d="m457.41,9.5c.26.23.29.63.07.89l-7.8,9.04c-.23.26-.63.29-.89.07h0c-.26-.23-.29-.63-.07-.89l7.8-9.04c.23-.26.63-.29.89-.07h0Z"/>
      <path class="cls-7" d="m471.88,21.4c.26.23.29.63.07.89l-7.8,9.04c-.23.26-.63.29-.89.07h0c-.26-.23-.29-.63-.07-.89l7.8-9.04c.23-.26.63-.29.89-.07h0Z"/>
    </g>
    <g>
      <path class="cls-6" d="m406.31,89.47c-6.69-5.39-7.74-15.19-2.34-21.87l21.81-27.04c5.39-6.69,15.19-7.74,21.87-2.34h0c6.69,5.39,7.74,15.19,2.34,21.88l-21.81,27.04c-5.39,6.69-15.19,7.74-21.87,2.34h0Z"/>
      <g>
        <path class="cls-7" d="m426.27,76.62c0,5.41-4.39,9.8-9.8,9.8s-9.8-4.39-9.8-9.8,4.39-9.8,9.8-9.8,9.8,4.39,9.8,9.8Z"/>
        <path class="cls-8" d="m421.05,76.62c0,2.53-2.05,4.58-4.58,4.58s-4.58-2.05-4.58-4.58,2.05-4.58,4.58-4.58,4.58,2.05,4.58,4.58Z"/>
      </g>
    </g>
    <g>
      <path class="cls-7" d="m448.57,46.63c0,4.23-3.43,7.67-7.67,7.67s-7.66-3.43-7.66-7.67,3.43-7.67,7.66-7.67,7.67,3.43,7.67,7.67Z"/>
      <path class="cls-8" d="m444.49,46.63c0,1.98-1.6,3.58-3.58,3.58s-3.58-1.6-3.58-3.58,1.6-3.58,3.58-3.58,3.58,1.6,3.58,3.58Z"/>
    </g>
    <path class="cls-6" d="m440.44,20.32c0,1.28-1.04,2.32-2.32,2.32s-2.32-1.04-2.32-2.32,1.04-2.32,2.32-2.32,2.32,1.04,2.32,2.32Z"/>
    <circle class="cls-6" cx="465.25" cy="41.94" r="2.32"/>
  </g>
</svg>